<svg width="913" height="1031" viewBox="0 0 913 1031" fill="none" xmlns="http://www.w3.org/2000/svg">
<path fill-rule="evenodd" clip-rule="evenodd" d="M501.451 0.776959C618.078 6.32104 740.759 49.6839 811.969 139.965C877.811 223.439 833.571 341.968 852.378 445.686C867.498 529.071 923.93 603.036 911.125 686.79C896.939 779.577 851.713 868.124 778.496 928.941C701.813 992.638 600.248 1046.16 501.451 1027.09C405.693 1008.6 375.864 887.369 294.051 835.422C204.536 778.584 48.4734 809.734 7.55653 713.486C-32.5267 619.199 98.6519 536.375 124.916 437.569C154.008 328.119 93.5425 195.894 168.14 109.359C245.424 19.7073 381.52 -4.92411 501.451 0.776959Z" fill="#EBC926"/>
</svg>
