<svg width="972" height="741" viewBox="0 0 972 741" fill="none" xmlns="http://www.w3.org/2000/svg">
<g clip-path="url(#clip0_595_5659)">
<path fill-rule="evenodd" clip-rule="evenodd" d="M513.451 0.776959C630.078 6.32104 752.759 49.6839 823.969 139.965C889.811 223.439 845.571 341.968 864.378 445.686C879.498 529.071 935.93 603.036 923.125 686.79C908.939 779.577 863.713 868.124 790.496 928.941C713.813 992.638 612.248 1046.16 513.451 1027.09C417.693 1008.6 387.864 887.369 306.051 835.422C216.536 778.584 60.4734 809.734 19.5565 713.486C-20.5267 619.199 110.652 536.375 136.916 437.569C166.008 328.119 105.542 195.894 180.14 109.359C257.424 19.7073 393.52 -4.92411 513.451 0.776959Z" fill="#EBC926"/>
<g clip-path="url(#clip1_595_5659)">
<path d="M463.038 173.317C473.041 167.606 484.102 165.63 494.146 172.334C498.585 175.295 500.118 176.103 505.249 177.151C516.57 168.785 521.572 167.601 534.093 174.893C543.291 174.065 553.345 175.347 562.615 175.623C565.228 175.7 568.322 176.648 570.988 176.761C578.891 177.105 586.161 176.346 592.749 181.76C598.771 186.707 598.287 193.921 600.54 200.476C600.926 198.461 601.22 196.988 601.371 194.931C601.504 193.126 600.506 187.735 601.046 186.652C602.338 187.56 603.453 190.504 604.095 192.01C606.389 193.137 609.315 194.205 611.248 195.661C613.51 197.367 614.446 200.805 616.06 202.714C617.839 204.816 620.689 206.377 622.525 208.728C625.982 213.149 628.073 218.015 630.778 222.811C634.437 229.291 638.266 233.728 640.696 240.978C642.807 247.278 643.856 252.31 643.65 259.093C643.521 263.291 641.9 266.626 640.826 270.548C640.292 272.496 640.475 276.63 639.982 278.659C638.737 283.783 636.908 288.844 635.552 293.944C634.614 297.47 635.078 301.461 634.528 304.969C632.993 314.753 629.748 324.065 625.356 332.926C624.414 334.822 620.215 342.718 619.011 344.204C608.755 360.659 599.554 373.878 585.687 387.507C582.632 390.509 578.05 399.209 575.965 403.18C572.508 412.758 570.129 430.595 570.002 441.042C572.492 442.079 575.604 443.178 577.851 444.606C582.546 447.591 586.467 451.856 591.087 454.987C593.674 456.743 596.502 457.761 599.141 459.403C605.507 464.073 611.83 468.755 618.601 472.868C626.13 477.439 634.314 481.309 642.026 485.568C656.049 493.292 669.948 501.237 683.721 509.401C695.452 516.237 708.239 523.829 717.987 533.3C721.405 536.617 723.396 545.273 725.658 549.614C736.224 569.886 733.232 592.86 735.513 614.797C736.082 623.605 735.197 632.056 734.335 640.766C733.662 647.545 734.297 654.761 733.949 661.566C733.488 670.604 734.986 679.564 735.826 688.545C736.433 695.214 736.597 701.918 736.319 708.609C736.035 716.415 731.235 733.901 733.57 741H731.327H647.751H638.813H636.756H628.819H626.854H611.839H446.094H436.709H380.012H363.108H348.001H332.397H330.541H240.481C241.621 739.196 241.497 739.234 240.914 737.253C239.264 736.176 240.449 734.713 239.917 732.616L239.315 732.527L238.375 733.437C237.108 724.667 239.945 712.801 239.546 703.734C239.537 699.609 237.925 695.252 238.03 691.145C238.268 681.781 239.504 673.052 239.534 663.603C239.594 644.497 238.208 625.144 239.893 606.091C241.05 593.008 244.36 579.389 247.057 566.534C248.193 561.262 249 553.92 250.62 548.991C253.652 539.893 258.021 531.196 261.352 522.221C263.992 515.109 266.699 512.073 271.746 506.788C276.893 501.402 281.727 495.169 288.347 491.343C293.309 488.477 299.007 486.882 303.679 483.328C309.56 478.994 311.018 475.62 317.929 472.179C325.891 468.218 329.779 470.89 337.304 468.316C342.087 466.679 346.355 463.255 351.15 461.539C357.931 459.324 364.906 458.178 371.768 456.052C381.137 453.151 388.585 448.64 397.075 444.04C399.004 442.995 402.949 443.089 405.172 441.958C408.148 440.445 410.193 438.19 412.816 436.18C414.387 434.98 417.199 434.042 418.14 433.448C421.21 431.511 428.719 432.314 430.089 431.742C429.142 429.84 427.12 428.652 425.975 426.823C420.58 418.217 412.596 380.297 410.985 369.14C409.867 361.391 407.908 341.244 409.578 334.241C409.605 334.129 409.634 334.018 409.662 333.907C408.71 333.016 407.735 331.985 406.813 331.049C405.289 330.426 402.831 327.711 401.832 326.363C396.924 319.733 395.281 309.971 396.556 301.932C394.863 301.484 393.607 301.451 392.8 299.767L393.076 298.989C394.15 297.909 395.387 297.669 396.865 297.177C398.22 295.533 399.342 293.508 400.69 291.793C404.371 287.11 409.078 285.589 414.783 284.88C417.11 280.15 423.048 274.681 423.786 269.977C425.417 259.591 415.76 250.63 413.521 241.358C412.049 235.258 415.984 230.597 416.732 225.163C417.463 219.852 415.02 213.765 416.751 208.29C418.781 199.808 427.277 194.835 435.028 192.379C439.961 190.816 440.842 192.325 446.12 189.089C447.562 188.389 449.002 186.382 450.621 185.329C455.253 182.318 459.722 180.915 464.9 179.264C459.453 179.554 455.6 180.66 451.099 183.754C449.743 184.686 446.84 187.432 445.455 187.467C446.515 186.386 446.85 185.926 447.753 184.739C451.822 179.386 457.942 175.735 464.578 174.735C469.96 173.924 473.246 175.593 478.423 176.558C479.473 176.754 482.421 176.666 483.576 176.642C476.034 170.785 471.925 171.373 463.038 173.317Z" fill="#EBDDC9"/>
<path d="M463.038 173.317C473.041 167.606 484.102 165.63 494.146 172.334C498.585 175.295 500.118 176.103 505.249 177.151C516.57 168.785 521.572 167.601 534.093 174.893C543.291 174.065 553.345 175.347 562.615 175.623C565.228 175.7 568.322 176.648 570.988 176.761C578.89 177.105 586.161 176.346 592.749 181.76C598.771 186.707 598.287 193.921 600.54 200.476C600.926 198.461 601.22 196.988 601.371 194.931C601.504 193.126 600.505 187.735 601.046 186.652C602.338 187.56 603.453 190.505 604.095 192.01C606.389 193.137 609.314 194.205 611.248 195.661C613.51 197.367 614.446 200.805 616.06 202.714C617.839 204.816 620.689 206.377 622.525 208.728C625.982 213.149 628.073 218.015 630.778 222.811C634.437 229.291 638.266 233.728 640.696 240.978C642.807 247.278 643.856 252.31 643.65 259.093C643.521 263.291 641.9 266.626 640.825 270.548C640.292 272.496 640.475 276.63 639.982 278.659C638.737 283.783 636.908 288.844 635.552 293.944C634.614 297.47 635.078 301.461 634.528 304.969C632.993 314.753 629.748 324.065 625.356 332.926C624.414 334.822 620.215 342.718 619.011 344.204C608.755 360.659 599.554 373.878 585.687 387.507C582.631 390.509 578.05 399.209 575.965 403.18C572.508 412.758 570.129 430.595 570.002 441.042C572.492 442.079 575.604 443.178 577.851 444.606C582.546 447.591 586.467 451.856 591.087 454.987C593.674 456.743 596.502 457.761 599.141 459.403C605.507 464.073 611.83 468.755 618.601 472.868C626.13 477.439 634.313 481.309 642.026 485.568C656.049 493.292 669.948 501.237 683.721 509.401C695.452 516.237 708.239 523.829 717.987 533.3C721.405 536.617 723.396 545.273 725.658 549.614C736.224 569.886 733.232 592.86 735.513 614.797C736.082 623.605 735.197 632.056 734.335 640.766C733.662 647.545 734.297 654.761 733.949 661.566C733.488 670.604 734.986 679.564 735.826 688.545C736.433 695.214 736.597 701.918 736.319 708.609C736.035 716.415 731.235 733.901 733.57 741H731.327H647.751H638.813H636.756H628.819H626.854C627.438 735.481 635.52 720.27 638.099 713.749C644.427 697.732 648.772 677.652 655.802 662.412L656.548 662.694C656.241 665.537 653.23 673.09 652.21 676.37C647.597 691.196 643.132 706.082 637.527 720.551C637.075 721.713 637.448 729.118 637.397 731.065C640.067 730.837 650.677 730.351 652.614 729.978C653.859 730.003 655.42 729.911 656.684 729.836C670.848 728.935 685.183 729.396 699.294 727.883C706.356 727.125 713.386 726.616 720.448 726.007C723.958 725.7 728.113 723.918 731.88 723.404C732.777 718.725 733.832 714.188 733.813 709.418C734.158 706.903 733.968 703.014 733.971 700.345C734.234 691.527 732.938 682.606 732.186 673.845C731.614 668.525 731.908 663.057 731.696 657.749C731.311 648.095 732.126 638.744 733.444 629.19C733.573 628.268 732.774 627.339 732.48 626.347C732.628 626.158 732.774 625.968 732.91 625.769C734.733 623.096 732.524 606.46 732.312 602.489C731.75 591.798 732.129 582.011 730.196 571.314C729.564 567.808 728.859 564.288 727.804 560.883C725.668 554.011 719.064 538.042 714.656 532.889C708.669 525.885 693.97 517.618 685.872 512.771C670.785 503.762 655.54 495.014 640.152 486.531C632.914 482.535 625.283 478.807 618.152 474.618C612.736 471.434 606.98 467.305 601.779 463.694C600.196 462.275 599.134 461.647 597.34 460.516C594.755 459.135 590.126 456.87 588.006 455.293C582.369 451.104 579.709 446.959 572.985 444.243C573.617 445.127 574.95 446.912 575.213 447.907C580.094 466.284 566.897 481.066 553.098 491.131C516.829 517.586 459.908 503.569 433.022 469.592C427.054 460.55 415.943 443.51 426.123 433.669C423.71 434.048 420.047 434.56 417.892 435.545C412.179 438.161 410.899 441.232 404.655 443.848C403.245 444.277 397.833 445.453 396.986 445.917C390.262 449.591 384.578 453.369 377.208 455.947C372.579 457.565 367.871 458.942 363.102 460.08C352.311 462.629 347.813 464.935 338 469.75C334.551 471.443 325.141 470.767 321.175 472.953C312.37 476.321 306.777 486.234 297.857 489.33C285.42 493.431 278.153 503.78 269.365 512.749C265.211 516.992 263.746 524.091 261.166 529.158C254.14 542.651 251.928 554.428 248.855 568.869C244.222 590.645 240.891 608.732 241.2 631.212C241.401 645.83 242.762 663.806 241.076 678.038L240.815 681.206L240.641 682.201C240.147 687.613 240.308 691.275 240.589 696.674C241.534 698.089 241.827 698.386 243.071 699.561C262.088 701.883 281.747 704.635 300.214 709.816C309.915 712.536 320.277 715.066 329.698 718.545L332.616 719.23C332.808 717.717 332.968 716.21 332.998 714.684C333.163 706.562 333.844 698.544 333.856 690.412C333.97 681.247 332.768 672.086 333.077 662.934C333.587 647.817 332.357 632.808 332.75 617.697C333.247 616.566 332.854 616.904 333.784 616.459C334.169 634.207 334.721 651.952 335.442 669.691C335.174 688.924 336.395 707.601 333.547 726.654C332.866 731.213 332.911 736.35 332.397 741H330.541H240.481C241.621 739.196 241.497 739.234 240.914 737.253C239.264 736.176 240.449 734.713 239.917 732.616L239.315 732.527L238.375 733.437C237.108 724.667 239.945 712.801 239.546 703.734C239.537 699.609 237.925 695.252 238.03 691.145C238.268 681.781 239.504 673.053 239.534 663.603C239.594 644.497 238.208 625.144 239.893 606.091C241.05 593.008 244.36 579.389 247.057 566.534C248.193 561.262 249 553.92 250.62 548.991C253.652 539.893 258.021 531.196 261.352 522.221C263.992 515.109 266.699 512.073 271.746 506.788C276.893 501.402 281.727 495.169 288.347 491.343C293.309 488.477 299.007 486.882 303.679 483.328C309.56 478.994 311.018 475.62 317.929 472.179C325.891 468.218 329.779 470.89 337.304 468.316C342.087 466.679 346.355 463.255 351.15 461.539C357.931 459.325 364.906 458.178 371.768 456.052C381.137 453.151 388.585 448.64 397.075 444.04C399.004 442.995 402.949 443.089 405.172 441.958C408.148 440.445 410.193 438.19 412.816 436.18C414.387 434.98 417.199 434.042 418.14 433.448C421.21 431.511 428.719 432.314 430.089 431.742C429.142 429.84 427.12 428.652 425.975 426.823C420.58 418.217 412.596 380.297 410.985 369.14C409.867 361.391 407.908 341.244 409.578 334.241C409.605 334.129 409.634 334.018 409.662 333.907C408.71 333.016 407.735 331.985 406.813 331.049C405.289 330.426 402.831 327.711 401.832 326.363C396.924 319.733 395.281 309.971 396.556 301.932C394.863 301.484 393.607 301.451 392.8 299.767L393.076 298.989C394.15 297.909 395.387 297.669 396.865 297.177C398.22 295.533 399.342 293.508 400.69 291.793C404.371 287.11 409.078 285.589 414.783 284.88C417.11 280.15 423.048 274.681 423.786 269.977C425.417 259.591 415.76 250.63 413.521 241.358C412.049 235.258 415.984 230.597 416.732 225.163C417.463 219.852 415.02 213.765 416.751 208.29C418.781 199.808 427.277 194.835 435.028 192.379C439.961 190.816 440.842 192.325 446.12 189.089C447.562 188.389 449.002 186.382 450.621 185.329C455.253 182.318 459.722 180.915 464.9 179.264C459.453 179.554 455.6 180.66 451.099 183.754C449.743 184.686 446.84 187.432 445.455 187.467C446.515 186.386 446.85 185.926 447.753 184.739C451.822 179.386 457.942 175.735 464.578 174.735C469.959 173.924 473.246 175.593 478.423 176.558C479.473 176.754 482.421 176.666 483.576 176.642C476.034 170.785 471.925 171.373 463.038 173.317Z" fill="#0E0B0A"/>
<path d="M242.089 701.753C269.632 702.701 306.228 711.898 332.248 721.299C331.62 725.504 331.039 730.003 330.67 734.233C330.486 736.337 330.648 738.861 330.541 741H240.481C241.621 739.196 241.497 739.234 240.914 737.253C239.534 722.648 241.964 715.215 242.089 701.753Z" fill="#BD6B3E"/>
<path d="M651.148 731.857C660.264 731.715 669.155 731.292 678.321 731.39C685.85 731.469 694.732 729.519 702.366 729.453C712.856 728.884 721.279 728.009 731.576 725.757C731.178 730.701 730.512 736.122 731.327 741H647.751C649.369 738.542 650.725 734.798 651.148 731.857Z" fill="#BD6B3E"/>
<path d="M638.073 732.729C642.415 732.218 646.778 731.927 651.148 731.857C650.725 734.799 649.369 738.542 647.751 741H638.813C638.547 738.245 638.301 735.487 638.073 732.729Z" fill="#96512C"/>
<path d="M628.819 741C629.953 735.952 632.604 729.933 634.993 725.327C635.543 729.479 636.636 736.982 636.756 741H628.819Z" fill="#D3C4B6"/>
<path d="M515.521 308.441C517.445 306.7 518.219 306.781 521.003 306.975C525.657 307.3 530.532 307.93 535.168 308.49C544.981 308.837 553.086 310.602 562.031 311.144C562.1 313.709 562.283 317.151 561.933 319.616C561.759 326.847 561.193 330.431 559.93 337.466C560.343 338.249 560.729 339.077 561.282 339.762C563.377 342.153 564.122 343.307 565.753 346.051C564.827 347.674 565.731 353.559 565.32 356.232C563.784 366.198 562.249 376.002 559.664 385.767C559.092 387.932 556.754 395.636 557.045 397.286C557.424 397.833 557.332 397.852 557.841 398.186C556.28 400.194 554.707 401.813 552.836 403.544C545.695 410.246 535.313 416.821 526.58 421.496C505.1 432.996 477.707 440.056 453.316 436.825C439.129 434.948 425.154 431.479 423.254 414.932C421.836 410.354 420.731 405.373 419.481 400.715C413.725 379.248 409.832 357.642 410.666 335.332C412.228 334.695 420.841 339.143 429.314 334.027C426.019 340.158 423.393 344.598 426.683 351.43C432.164 355.766 432.579 353.806 437.382 356.136C439.605 357.559 440.913 357.532 443.538 357.543C446.116 355.722 445.325 354.928 448.704 353.667C450.412 353.986 453.158 354.482 454.742 355.031C458.569 356.357 460.222 357.405 464.29 358.115C466.272 357.767 466.876 357.634 468.768 356.934C472.041 352.79 473.725 347.097 470.64 342.331C469.853 341.871 469.51 341.15 469.001 340.368L469.329 340.117C469.666 338.28 464.284 334.379 464.788 330.436C469.149 336.494 474.251 341.674 481.961 342.963C487.049 343.814 491.075 342.319 495.849 340.805C505.069 334.258 507.363 330.625 511.173 319.979C512.055 316.365 511.903 312.819 511.897 309.118L515.521 308.441Z" fill="#BD6B3E"/>
<path d="M561.282 339.762C563.377 342.153 564.122 343.307 565.753 346.051C564.827 347.674 565.731 353.559 565.32 356.232C563.784 366.198 562.249 376.002 559.664 385.767C559.092 387.932 556.754 395.636 557.045 397.286C557.424 397.834 557.332 397.852 557.841 398.186C556.28 400.194 554.707 401.813 552.836 403.544C545.695 410.247 535.313 416.821 526.58 421.496C505.1 432.996 477.707 440.057 453.316 436.825C439.129 434.948 425.154 431.479 423.254 414.932L423.848 414.644L424.067 413.798C425.112 414.098 425.394 415.459 426.7 416.514L427.314 417.317L427.666 417.228L427.751 414.881L429.261 413.775C429.806 414.53 429.953 414.913 430.837 415.178C431.36 414.884 431.821 414.635 432.358 414.366C433.017 414.72 432.972 414.739 433.428 415.349L434.094 415.206L434.37 413.971L434.719 414.025L434.816 414.363C435.34 416.135 436.04 417.168 438.05 417.408C438.22 416.511 438.186 414.928 438.589 414.404L439.085 415.646C441.327 416.044 442.918 416.565 445.1 417.247C445.156 416.347 445.099 415.096 445.61 414.445C446.123 415.485 446.048 416.309 446.099 417.491L450.697 418.666C450.369 416.555 450.107 414.436 449.91 412.31C451.204 415.074 451.466 416.369 452.2 419.336C453.372 419.759 454.935 420.268 456.052 420.735L456.381 421.288C456.942 421.114 456.747 421.241 457.026 421.013C458.597 421.029 460.214 421.604 461.39 421.278C461.119 419.689 460.888 418.808 461.022 417.187L461.333 416.979C461.676 418.211 461.836 420.587 462.428 421.193C463.047 420.71 462.916 420.817 463.64 420.482C464.799 421.013 465.174 421.291 466.409 421.323L466.825 420.887C466.935 419.291 466.128 416.755 465.691 415.096C466.54 416.77 468.949 422.552 470.952 422.112C471.542 421.285 471.631 421.089 472.48 420.473L472.942 420.628L473.008 421.847C473.981 422.157 476.389 422.154 477.302 421.68C477.344 420.767 477.29 420.425 477.179 419.547L477.571 419.471C477.912 420.242 478.131 420.681 478.54 421.421C479.801 421.768 481.765 421.386 483.145 421.225C482.789 418.915 482.411 416.612 482.011 414.309C483.381 417.115 484.015 418.634 484.808 421.635L489.435 420.865L490.035 420.359L490.364 420.546C494.279 420.435 492.781 418.587 493.745 416.053C494.345 417.374 494.389 418.827 495.28 419.749C497.726 419.617 498.121 416.818 499.641 416.685L499.783 417.873C500.111 417.923 510.485 414.218 511.755 413.804C512.134 412.982 512.643 411.76 513.496 411.545C513.177 412.471 513.031 412.389 513.246 413.175C513.928 413.121 514.267 413.055 514.943 412.79C530.51 406.688 536.643 399.666 541.24 383.482C542.318 379.676 544.021 371.362 545.556 368.172C546.027 368.563 545.898 369.533 546.296 370.572C546.801 370.107 547.484 367.71 547.752 366.903C548.144 367.036 548.248 367.136 548.561 367.397C550.539 365.936 550.343 362.814 551.598 361.056L552.043 362.232L552.422 362.262C554.978 358.642 555.882 351.978 556.789 347.502C556.956 352.355 556.29 353.606 557.462 358.582C557.604 355.978 560.302 341.782 561.282 339.762Z" fill="#96512C"/>
<path d="M450.405 431.972C457.431 432.083 465.013 432.048 472.035 431.88C475.475 431.798 480.249 430.683 483.708 430.143C486.337 429.732 489.745 429.426 492.216 428.841C503.856 426.096 515.173 421.569 525.891 416.299C528.798 414.871 533.044 413.45 535.724 412.028C540.286 409.604 545.035 405.597 549.714 403.243C551.026 402.584 551.658 403.06 552.836 403.544C545.695 410.246 535.313 416.821 526.58 421.496C505.1 432.996 477.707 440.056 453.316 436.825C439.129 434.948 425.154 431.479 423.254 414.931L423.848 414.644L424.067 413.797C425.112 414.097 425.394 415.459 426.7 416.514L427.314 417.317L427.666 417.228L427.751 414.881C429.05 428.102 438.076 429.432 449.229 431.843L447.987 428.857L448.478 427.565C448.862 429.157 449.653 430.522 450.405 431.972Z" fill="#763E20"/>
<path d="M461.39 421.278C461.119 419.689 460.888 418.808 461.023 417.187L461.333 416.979C461.676 418.211 461.836 420.587 462.429 421.193C462.438 421.25 462.433 421.307 462.458 421.357C462.81 422.062 464.267 429.388 464.546 430.756L464.303 431.097C463.048 430.115 462.137 423.417 461.939 421.626L461.39 421.278Z" fill="#763E20"/>
<path d="M438.05 417.408C438.22 416.511 438.186 414.928 438.589 414.404L439.085 415.646C439.042 417.007 438.978 418.078 438.833 419.433L438.55 419.323C438.374 418.682 438.201 418.056 438.05 417.408Z" fill="#763E20"/>
<path d="M447.987 428.857C447.636 427.132 447.478 426.226 447.33 424.447L447.7 424.397L447.315 423.626L447.389 423.562C448.022 424.681 448.219 426.26 448.478 427.565L447.987 428.857Z" fill="#763E20"/>
<path d="M537.278 405.063C537.294 405.075 537.749 405.369 537.645 405.535C536.874 406.742 535.891 409.58 535.768 410.727C535.335 410.338 535.48 410.477 535.215 409.915C535.543 408.086 536.232 406.595 537.278 405.063Z" fill="#763E20"/>
<path d="M435.306 422.384L435.759 422.349C436.175 423.502 436.585 424.393 436.66 425.616L436.473 425.663L436.059 425.351C435.536 423.992 435.418 423.803 435.306 422.384Z" fill="#763E20"/>
<path d="M410.666 335.332C412.228 334.695 420.841 339.143 429.314 334.027C426.019 340.158 423.393 344.598 426.683 351.43C432.164 355.766 432.579 353.806 437.382 356.136C439.605 357.559 440.913 357.532 443.538 357.543C441.619 359.981 439.887 362.549 438.539 365.352C437.751 365.377 435.727 365.372 435.088 365.572L431.74 366.719C430.404 367.677 429.713 368.121 428.286 368.934C429.385 368.968 430.154 368.189 431.441 368.219C429.442 369.521 426.557 370.724 426.211 373.258C424.605 375.97 426.577 376.717 428.733 378.452C428.076 379.209 427.22 380.136 426.655 380.94L426.632 386.625C428.94 390.136 429.645 391.047 433.605 392.731C433.243 393.186 429.97 395.152 429.214 395.656C429.614 396.397 430.525 398.199 431.126 398.717C424.398 400.237 425.677 408.4 426.652 413.535L427.404 414.357C426.823 415.203 426.849 415.516 426.7 416.514C425.394 415.459 425.112 414.098 424.067 413.797L423.848 414.644L423.254 414.932C421.836 410.354 420.731 405.373 419.481 400.715C413.725 379.248 409.832 357.642 410.666 335.332Z" fill="#96512C"/>
<path d="M437.382 356.136C439.605 357.559 440.913 357.532 443.538 357.543C441.619 359.981 439.887 362.549 438.539 365.352C437.752 365.377 435.727 365.372 435.088 365.572L431.74 366.719C421.729 369.906 424.625 375.534 420.735 377.352L420.258 376.908C418.322 367.656 423.184 360.565 431.821 357.642C433.417 357.102 436.253 357.139 437.382 356.136Z" fill="#763E20"/>
<path d="M418.771 341.418C420.484 341.357 421.79 340.933 422.882 342.354C423.152 344.291 419.957 348.584 418.723 350.365C418.532 351.54 418.614 351.834 417.868 352.465C417.247 352.375 416.9 352.45 416.615 351.791C414.915 347.852 415.463 343.906 418.771 341.418Z" fill="#BD6B3E"/>
<path d="M431.441 368.219C434.849 367.272 436.689 368.532 439.956 369.948C441.686 369.697 447.235 368.517 448.656 368.853C453.021 369.886 457.484 372.816 461.652 374.519C465.834 376.335 470.292 377.946 474.325 379.834C474.848 380.747 474.595 381.898 474.416 382.97C473.454 382.963 472.136 382.997 471.209 382.937C467.906 385.741 456.382 390.156 455.756 391.444C456.489 392.028 456.842 391.86 457.963 391.975L459.106 392.085L459.261 392.425C458.015 393.39 455.565 394.148 454.034 394.476C447.508 395.712 439.84 395.144 433.605 392.731C429.645 391.047 428.94 390.137 426.632 386.625L426.655 380.94C427.22 380.136 428.076 379.209 428.733 378.452C426.577 376.717 424.605 375.97 426.211 373.258C426.557 370.724 429.442 369.521 431.441 368.219Z" fill="#96512C"/>
<path d="M431.441 368.219C434.849 367.272 436.689 368.532 439.956 369.948C441.686 369.697 447.235 368.517 448.656 368.853C453.021 369.886 457.484 372.816 461.653 374.519C465.834 376.335 470.292 377.946 474.325 379.834C474.848 380.747 474.595 381.898 474.416 382.97C474.369 381.717 474.397 381.273 474.07 380.085C473.471 380.315 471.453 381.124 470.917 381.104C466.875 380.956 462.086 379.072 458.179 378.736C447.394 377.809 435.123 381.044 426.211 373.258C426.557 370.724 429.442 369.521 431.441 368.219Z" fill="#763E20"/>
<path d="M426.211 373.258C435.123 381.044 447.394 377.809 458.179 378.736C462.086 379.072 466.875 380.956 470.917 381.104C471.453 381.124 473.471 380.315 474.07 380.084C474.397 381.272 474.369 381.717 474.416 382.969C473.454 382.963 472.136 382.997 471.209 382.937C459.941 380.5 449.649 379.659 438.22 379.823C436.101 379.853 432.725 378.282 430.56 378.487C428.921 379.604 428.507 381.365 427.807 383.237C427.979 383.977 428.499 386.358 428.838 386.871C434.468 395.377 449.835 393.094 457.963 391.975L459.106 392.085L459.261 392.425C458.015 393.389 455.565 394.148 454.034 394.476C447.508 395.712 439.84 395.144 433.605 392.731C429.645 391.047 428.94 390.136 426.632 386.625L426.655 380.94C427.22 380.136 428.076 379.209 428.733 378.452C426.577 376.716 424.605 375.97 426.211 373.258Z" fill="#0E0B0A"/>
<path d="M446.083 357.776C448.278 357.656 451.018 357.497 453.159 357.995C461.095 361.123 462.262 361.451 468.654 366.75L469.337 365.726C470.64 366.512 470.249 369.918 472.022 369.979C472.05 369.34 472.088 368.702 472.134 368.064L472.617 367.921C473.616 368.766 473.703 369.355 474.198 370.627L474.649 370.682L475.32 369.861C477.654 370.763 477.379 372.956 479.465 372.092C481.764 374.005 481.043 382.924 480.658 385.629C479.84 383.907 476.29 378.813 474.34 377.886C466.148 373.993 456.535 368.196 447.691 366.373C445.511 365.924 444.423 367.895 441.034 366.573C441.817 362.381 443.437 360.886 446.083 357.776Z" fill="#763E20"/>
<path d="M515.521 308.441C517.445 306.7 518.219 306.781 521.003 306.975C525.657 307.3 530.532 307.93 535.168 308.49C544.981 308.837 553.086 310.602 562.031 311.144C562.1 313.709 562.283 317.151 561.933 319.616C561.835 317.811 561.791 316.37 561.822 314.564C553.882 314.992 545.427 310.457 536.915 312.041C531.003 313.142 524.498 315.674 518.785 317.641C516.747 318.342 513.196 319.805 511.173 319.979C512.055 316.365 511.903 312.819 511.897 309.118L515.521 308.441Z" fill="#96512C"/>
<path d="M515.521 308.441C517.445 306.7 518.219 306.781 521.003 306.975C525.657 307.3 530.532 307.93 535.168 308.49C531.622 312.672 519.496 310.979 515.521 308.441Z" fill="#BD6B3E"/>
<path d="M433.605 392.731C439.84 395.144 447.508 395.712 454.034 394.476C454.751 397.181 458.76 397.693 461.026 398.048C452.204 401.482 440.006 402.881 431.126 398.717C430.525 398.199 429.614 396.397 429.214 395.656C429.97 395.152 433.243 393.186 433.605 392.731Z" fill="#763E20"/>
<path d="M464.788 330.436C469.149 336.494 474.25 341.674 481.961 342.963C487.049 343.814 491.075 342.319 495.849 340.805C494.43 343.479 492.02 345.256 489.407 346.672C485.82 346.335 482.677 346.8 479.369 346.168C477.329 345.778 472.362 342.211 470.64 342.331C469.853 341.871 469.51 341.15 469.001 340.368L469.329 340.117C469.666 338.28 464.284 334.379 464.788 330.436Z" fill="#96512C"/>
<path d="M443.538 357.543C446.116 355.722 445.325 354.928 448.704 353.667C450.412 353.986 453.158 354.482 454.742 355.031C458.569 356.357 460.222 357.405 464.29 358.115C460.417 359.212 457.519 357.782 453.411 357.53L453.159 357.995C451.018 357.497 448.278 357.656 446.083 357.776C443.437 360.886 441.817 362.381 441.034 366.573C440.007 365.494 436.743 365.844 435.088 365.572C435.727 365.372 437.752 365.377 438.539 365.352C439.887 362.549 441.619 359.981 443.538 357.543Z" fill="#96512C"/>
<path d="M427.404 414.357C428.447 413.422 429.191 411.886 430.126 411.412C429.838 412.379 429.661 412.85 429.261 413.775L427.751 414.881L427.666 417.228L427.314 417.317L426.7 416.514C426.849 415.516 426.823 415.203 427.404 414.357Z" fill="#431F14"/>
<path d="M489.435 420.864C488.901 419.256 487.885 416.372 487.924 414.745C488.772 416.265 489.47 418.647 490.035 420.359L489.435 420.864Z" fill="#763E20"/>
<path d="M456.052 420.735C456.165 418.574 456.326 417.089 456.633 414.944C456.76 416.603 457.057 419.449 457.026 421.013C456.747 421.241 456.942 421.114 456.381 421.288L456.052 420.735Z" fill="#763E20"/>
<path d="M541.575 366.131L542.255 366.549C542.804 368.146 540.488 374.192 539.654 375.912C539.61 375.872 539.55 375.843 539.521 375.791C539.133 375.051 541.569 368.081 541.575 366.131Z" fill="#96512C"/>
<path d="M508.503 385.433L508.781 386.111C508.244 388.054 506.993 391.693 505.852 393.287C505.514 391.943 507.767 386.908 508.503 385.433Z" fill="#96512C"/>
<path d="M526.504 392.367C527.265 394.05 525.73 398.458 525.063 400.231C524.646 399.001 525.913 393.738 526.504 392.367Z" fill="#763E20"/>
<path d="M527.553 374.092C528.235 375.773 526.526 380.266 525.72 381.892C525.417 380.034 526.94 375.923 527.553 374.092Z" fill="#763E20"/>
<path d="M534.251 367.806C534.545 368.809 533.142 374.654 532.611 375.838C531.986 374.014 533.297 369.427 534.251 367.806Z" fill="#763E20"/>
<path d="M509.031 397.232C509.344 397.901 507.458 402.129 507.012 403.384L506.75 403.327L506.551 402.834C506.898 400.604 507.834 399.067 509.031 397.232Z" fill="#763E20"/>
<path d="M519.584 403.149C520.349 404.983 519.467 406.419 518.627 408.038C518.207 406.664 519.113 404.623 519.584 403.149Z" fill="#763E20"/>
<path d="M515.357 399.665C515.505 399.796 515.698 400.106 515.824 400.286C515.739 401.891 515.177 403.044 514.601 404.55L514.418 404.37C514.453 402.97 515.012 401.072 515.357 399.665Z" fill="#763E20"/>
<path d="M535.313 381.976L535.736 382.243C535.844 383.265 535.164 384.492 534.738 385.489L534.258 385.447C534.166 384.443 534.905 382.979 535.313 381.976Z" fill="#96512C"/>
<path d="M569.238 378.909C571.911 383.276 573.69 383.83 578.47 385.202C577.696 387.853 576.363 392.607 575.999 395.325C570.056 414.091 567.743 433.918 567.478 453.524C567.437 456.756 566.979 459.928 566.855 463.147C568.261 458.781 568.83 455.382 569.083 450.776C570.489 450.302 572.208 450.817 573.766 451.088C574.96 460.936 572.622 468.439 566.438 476.093C536.599 513.046 482.719 508.879 447.913 481.685C444.567 479.072 442.896 476.754 440.988 473.067C440.687 472.713 440.803 472.89 440.568 472.422C434.543 460.5 432.918 447.787 437.194 435.002C443.522 438.028 452.613 439.027 459.624 439.674C468.184 440.47 477.79 438.635 486.332 437.46C497.132 435.975 507.976 431.966 518.074 428.001C522.605 426.2 526.791 423.338 531.171 421.234C536.213 419.073 548.217 410.07 552.675 406.473C553.181 405.775 555.43 403.503 556.163 402.797C561.155 397.991 563.541 393.441 566.135 387.111C567.475 384.204 568.22 381.934 569.238 378.909Z" fill="#BD6B3E"/>
<path d="M437.194 435.002C443.522 438.028 452.613 439.027 459.624 439.674C468.184 440.47 477.79 438.635 486.332 437.46C497.132 435.975 507.976 431.966 518.074 428.001C522.605 426.2 526.791 423.338 531.171 421.234C529.663 425.369 515.113 434.847 511.012 437.668C507.739 439.921 497.789 443.68 496.241 446.887C490.851 448.946 484.387 451.426 479.426 454.32C475.21 457.359 470.844 460.184 466.343 462.784C459.672 466.161 448.731 471.696 441.321 472.666L440.988 473.067C440.687 472.713 440.803 472.89 440.568 472.422C434.543 460.5 432.918 447.787 437.194 435.002Z" fill="#763E20"/>
<path d="M466.343 462.784C470.844 460.184 475.21 457.359 479.426 454.32C485.233 460.885 489.726 462.828 498.756 463.583C503.906 464.013 517.97 462.01 523.057 460.364C511.091 468.489 494.743 477.31 480.108 471.254C475.847 469.491 469.644 466.06 466.343 462.784Z" fill="#96512C"/>
<path d="M531.171 421.234C536.213 419.073 548.217 410.07 552.675 406.474C552.195 412.085 541.683 420.426 537.698 424.144C527.253 433.887 510.339 444.451 496.241 446.887C497.789 443.68 507.739 439.921 511.012 437.668C515.113 434.847 529.664 425.37 531.171 421.234Z" fill="#96512C"/>
<path d="M569.238 378.909C571.911 383.276 573.69 383.83 578.47 385.202C577.696 387.853 576.363 392.607 575.999 395.325C575.687 395.248 575.377 395.166 575.07 395.08C570.688 393.87 568.258 390.894 566.135 387.111C567.475 384.204 568.22 381.934 569.238 378.909Z" fill="#96512C"/>
<path d="M422.515 276.827C423.622 274.496 424.678 272.189 425.764 269.819C431.004 258.381 433.016 244.226 442.551 235.327C445.654 232.432 449.49 231.209 453.466 230.127C458.484 228.772 463.652 228.052 468.849 227.985C478.972 227.786 489.015 230.943 499.176 230.261C500.892 230.145 504.27 229.491 505.631 230.266C507.783 231.643 509.951 232.996 512.134 234.324C516.399 235.042 518.365 235.42 522.703 235.621C519.676 236.732 519.237 236.601 516.45 237.354C518.295 238.783 518.412 238.882 520.643 239.613L522.649 240.287C524.371 240.859 526.027 241.403 527.72 242.058C530.69 242.825 533.171 242.335 536.185 241.963C534.362 242.849 532.1 244.022 530.257 244.746C539.604 244.553 544.381 244.341 552.672 239.208C552.384 241.114 552.217 243.125 551.282 244.781C549.038 248.753 546.82 251.826 544.688 255.938L544.574 256.223C543.632 258.633 544.043 260.552 542.239 261.56C540.763 261.529 540.57 261.29 539.417 261.961C538.223 264.031 538.574 268.054 538.858 270.426C544.356 276.758 551.038 282.985 555.838 289.623C560.511 295.183 561.361 300.295 562.255 307.179C558.441 306.862 554.754 306.853 551 306.593C537.585 305.662 523.129 304.459 509.84 302.714C508.545 299.476 506.086 296.117 503.451 293.794C502.5 292.956 500.769 292.175 500.07 291.186C501.912 289.324 513.944 290.208 516.883 291.404C522.409 293.655 525.057 296.213 531.335 295.992C527.755 292.83 511.818 280.734 507.382 280.444C496.908 279.76 473.16 278.12 467.561 288.614C467.735 290.078 467.931 291.538 468.148 292.996C466.724 294.861 464.505 297.597 463.325 299.519C462.997 299.251 461.862 298.374 461.671 298.103C457.828 294.989 452.157 294.798 447.461 295.416L446.774 295.07C446.046 294.141 446.086 294.191 445.942 293.007C445.414 284.505 437.022 280.714 430.142 278.276C427.252 277.491 425.477 277.082 422.515 276.827Z" fill="#BD6B3E"/>
<path d="M422.515 276.827C423.622 274.496 424.678 272.189 425.764 269.819C431.004 258.381 433.016 244.226 442.551 235.327C445.654 232.432 449.49 231.209 453.466 230.127C458.484 228.772 463.652 228.052 468.849 227.985C478.972 227.786 489.015 230.943 499.176 230.261C500.892 230.145 504.27 229.491 505.631 230.266C502.361 233.366 498.111 234.11 493.767 233.887C478.163 233.089 460.663 228.968 447.862 240.828C441.124 247.07 440.726 255.662 437.89 263.732C436.066 268.948 433.453 273.853 430.142 278.276C427.252 277.491 425.477 277.082 422.515 276.827Z" fill="#96512C"/>
<path d="M530.258 244.746C539.604 244.553 544.381 244.342 552.672 239.208C552.384 241.115 552.217 243.125 551.282 244.781C549.038 248.753 546.82 251.826 544.688 255.938C543.44 252.846 545.468 248.453 547.218 245.878L547.5 245.47L547.411 245.12C546.135 245.202 543.307 246.394 541.515 246.875C535.894 248.386 525.891 245.508 521.158 242.323C521.142 241.492 521.016 241.856 521.578 241.208C522.447 241.245 522.952 241.485 523.758 241.775L523.796 241.386L523.651 241.618L523.809 241.678L523.439 240.993C523.104 240.836 522.899 240.556 522.649 240.287C524.371 240.86 526.027 241.403 527.72 242.058C530.69 242.825 533.171 242.336 536.185 241.963C534.362 242.849 532.1 244.023 530.258 244.746Z" fill="#96512C"/>
<path d="M522.649 240.287C524.371 240.859 526.027 241.403 527.72 242.058C524.722 243.802 523.193 240.956 521.158 242.323C521.142 241.492 521.016 241.856 521.578 241.208C522.447 241.245 522.952 241.485 523.758 241.775L523.796 241.386L523.651 241.617L523.809 241.678L523.439 240.993C523.104 240.836 522.899 240.556 522.649 240.287Z" fill="#96512C"/>
<path d="M538.858 270.426C544.356 276.758 551.038 282.985 555.838 289.623C553.193 289.521 549.515 286.599 548.04 284.565C545.604 281.208 538.678 274.506 538.858 270.426Z" fill="#96512C"/>
<path d="M467.561 288.614C467.735 290.078 467.931 291.538 468.148 292.996C466.724 294.861 464.505 297.597 463.325 299.519C462.997 299.251 461.862 298.374 461.671 298.103C463.447 296.476 467.181 291.254 467.561 288.614Z" fill="#96512C"/>
<path d="M512.134 234.324C516.399 235.042 518.365 235.42 522.703 235.621C519.676 236.732 519.237 236.601 516.45 237.354C514.873 237.055 512.908 235.773 512.134 234.324Z" fill="#96512C"/>
<path d="M581.977 327.33L582.859 326.186C594.224 311.285 612.866 312.046 616.37 332.239C616.926 335.431 616.607 338.276 616.354 341.479C612.12 353.739 605.671 363.475 596.951 373.042C594.154 376.109 591.09 379.276 587.339 381.18C581.614 384.009 575.134 383.241 571.092 378.181C571.064 375.998 571.14 371.978 570.72 369.98L570.331 369.848C569.035 370.942 568.34 376.682 567.44 378.907C565.004 384.915 561.996 393.281 557.841 398.186C557.332 397.852 557.424 397.833 557.045 397.286C556.754 395.636 559.092 387.932 559.664 385.767C562.249 376.002 563.784 366.198 565.32 356.232C565.73 353.559 564.827 347.674 565.753 346.051C572.976 341.117 570.925 332.535 575.715 325.752C577.285 323.527 581.769 317.872 584.777 320.053C585.187 321.651 582.89 324.998 581.977 327.33Z" fill="#BD6B3E"/>
<path d="M585.292 341.898C583.958 335.287 593.889 323.435 600.528 322.419C603.267 322 605.046 322.271 607.709 322.87C613.867 329.059 612.844 339.088 609.738 346.582C609.248 347.637 608.547 349.035 608.161 350.094C607.653 355.817 601.191 360.45 596.995 363.47C604.098 354.122 606.452 347.991 606.822 336.191C607.333 319.659 590.745 332.581 591.226 336.506C592.9 337.282 595.264 338.476 596.989 338.904C600.774 345.686 601.984 352.107 594.749 357.392C590.233 357.574 587.835 358.104 583.889 360.475C579.886 362.882 578.306 363.147 575.696 359.116C577.532 355.383 579.118 353.595 581.737 350.42C581.308 346.736 581.51 344.31 581.974 340.62C583.33 344.081 584.875 346.952 583.374 350.535C582.417 352.825 578.176 357.567 578.306 359.375C580.464 360.687 584.663 357.679 586.752 356.777C588.151 353.025 597.235 348.351 589.361 344.13C588.009 343.405 586.679 342.601 585.292 341.898Z" fill="#0E0B0A"/>
<path d="M591.226 336.506C590.117 336.17 589.617 336.255 589.099 335.516C589.181 333.01 590.834 330.798 592.597 329.133C597.15 324.838 602.581 321.464 608.433 325.431C611.836 331.742 611.144 335.238 609.444 342.149C609.043 343.781 608.509 345.142 608.578 346.797L609.738 346.582C609.248 347.637 608.547 349.035 608.161 350.094C607.652 355.817 601.191 360.45 596.995 363.47C604.098 354.122 606.452 347.991 606.821 336.192C607.333 319.659 590.745 332.581 591.226 336.506Z" fill="#96512C"/>
<path d="M608.578 346.797L609.738 346.582C609.248 347.637 608.547 349.035 608.161 350.094L607.855 350C607.507 349.058 608.161 347.984 608.578 346.797Z" fill="#431F14"/>
<path d="M585.292 341.898C586.401 340.991 586.164 341.145 586.723 339.888C588.951 334.881 595.735 340.735 597.513 342.51C598.016 353.372 598.322 355.151 586.752 356.777C588.151 353.025 597.235 348.351 589.362 344.13C588.009 343.405 586.679 342.602 585.292 341.898Z" fill="#96512C"/>
<path d="M595.801 363.059L596.196 363.251C595.851 364.126 593.058 366.817 592.136 367.865L591.738 367.821C591.839 366.365 594.689 364.084 595.801 363.059Z" fill="#431F14"/>
<path d="M444.995 300.197C452.496 297.154 455.007 298.027 461.905 301.679C461.53 302.953 460.888 304.931 460.625 306.166C459.459 315.003 460.421 322.623 464.788 330.436C464.284 334.379 469.666 338.28 469.329 340.117L469.001 340.368L468.452 340.405C469.399 341.629 469.592 342.712 469.764 344.18C470.534 350.732 470.118 353.594 463.829 355.825C458.883 354.053 451.747 350.726 446.754 351.202C444.23 353.395 445.305 354.02 441.437 355.998C434.058 353.413 437.192 352.744 432.475 349.257L432.173 349.417C432.288 350.536 432.309 350.908 432.25 352.027L431.807 352.409C429.721 352.152 427.511 349.811 426.944 347.829C425.897 344.173 427.936 340.898 429.644 337.832C434.176 329.244 439.83 321.278 443.898 312.359C445.482 308.887 447.511 305.986 448.937 302.267L448.457 302.181C447.328 303.539 446.211 304.909 445.106 306.288L444.995 300.197Z" fill="#BD6B3E"/>
<path d="M429.644 337.832C430.37 339.175 430.401 340.008 430.893 341.335C433.876 349.393 439.115 350.246 446.754 351.202C444.23 353.395 445.305 354.02 441.437 355.998C434.058 353.413 437.192 352.744 432.475 349.257L432.173 349.417C432.288 350.536 432.309 350.908 432.25 352.027L431.807 352.409C429.721 352.152 427.511 349.811 426.944 347.829C425.897 344.173 427.936 340.898 429.644 337.832Z" fill="#96512C"/>
<path d="M444.995 300.197C452.496 297.154 455.007 298.027 461.905 301.679C461.53 302.953 460.888 304.931 460.625 306.166C460.531 304.386 458.779 302.783 457.294 301.995C455.083 300.821 450.3 299.476 448.937 302.267L448.457 302.181C447.328 303.539 446.211 304.909 445.106 306.288L444.995 300.197Z" fill="#96512C"/>
<path d="M594.945 239.973C595.671 240.713 595.608 241.476 596.174 241.794C596.986 242.251 598.85 242.589 599.81 242.816C603.384 243.66 604.799 244.933 607.634 247.147C595.823 246.984 586.562 247.457 578.407 256.879C579.074 254.49 578.808 252.107 579.908 249.989C580.271 249.286 580.328 249.39 580.455 248.535C579.453 248.923 576.205 251.805 574.906 252.707C565.882 258.966 562.836 262.656 561.133 273.19L560.072 269.256C559.301 267.442 558.043 264.668 557.557 262.809C557.089 261.028 557.885 257.934 556.694 256.22L556.293 256.245C555.244 258.03 555.228 260.769 554.182 263.086L553.708 263.212C552.264 261.872 552.119 259.235 551.885 257.303C551.067 250.557 558.448 246.374 563.054 241.204C562.176 244.31 560.982 246.703 559.629 249.608C562.062 248.077 563.532 248.003 566.192 247.395C573.548 245.716 575.955 244.147 583.45 245.683C586.559 244.744 591.848 241.64 594.945 239.973Z" fill="#1F1511"/>
<path d="M432.194 434.282C432.937 434.18 433.246 434.332 433.977 434.522C435.155 435.937 433.914 438.796 433.633 440.701C433.103 444.495 432.925 448.334 433.1 452.163C433.476 460.152 435.587 466.499 438.652 473.746C437.594 472.245 436.565 470.723 435.564 469.184C430.243 462.294 421.289 448.687 424.627 439.235C425.562 436.591 429.627 435.16 432.194 434.282Z" fill="#763E20"/>
<path d="M524.842 195.633C527.069 196.436 530.589 200.667 533.499 202.086C536.956 203.77 544.318 203.808 547.003 205.842L546.662 206.408C534.106 209.404 530.842 205.475 524.842 195.633Z" fill="#1F1511"/>
<path d="M563.377 209.3C571.661 212.238 571.092 220.639 569.911 227.485L569.661 227.862C568.227 227.571 566.783 213.713 565.301 211.921C564.748 211.251 564.151 210.153 563.377 209.3Z" fill="#1F1511"/>
<path d="M527.543 213.061C533.256 213.291 535.509 218.649 536.896 223.312C535.815 226.598 535.389 228.043 533.395 230.833C532.896 231.401 532.909 231.353 532.204 231.657C532.175 231.283 532.09 231.121 532.258 230.833C533.85 228.069 534.191 224.384 533.758 221.217C533.272 217.646 530.412 215.096 527.543 213.061Z" fill="#1F1511"/>
<path d="M569.083 450.776C569.2 448.665 569.453 445.721 569.396 443.674C572.224 446.331 573.544 447.165 573.766 451.088C572.208 450.817 570.489 450.302 569.083 450.776Z" fill="#96512C"/>
<path d="M541.512 214.929C545.708 219.814 547.326 221.825 544.925 228.126C544.757 228.232 544.59 228.337 544.422 228.443C544.03 227.599 544.602 223.697 544.296 221.776C543.733 218.242 541.749 217.134 541.512 214.929Z" fill="#1F1511"/>
<path d="M445.942 293.008C446.086 294.192 446.046 294.141 446.774 295.07L447.461 295.416C445.799 295.875 444.343 296.867 443.208 296.938C442.194 296.198 441.832 294.685 441.244 293.331C442.953 293.101 444.224 293.064 445.942 293.008Z" fill="#96512C"/>
<path d="M611.823 239.041C616.221 239.725 618.086 243.298 617.722 247.486C616.528 246.024 616.389 244.095 615.498 242.786C614.642 241.524 612.828 240.604 611.823 239.041Z" fill="#1F1511"/>
<path d="M560.312 215.883C563.257 217.937 562.659 223.832 562.372 226.954C561.964 226.474 560.542 217.183 560.312 215.883Z" fill="#1F1511"/>
<path d="M605.302 269.592C606.098 270.518 606.569 278.813 606.698 280.51C605.081 279.357 605.166 271.65 605.302 269.592Z" fill="#1F1511"/>
<path d="M595.997 271.721C596.382 271.934 596.654 272.202 597.001 272.488C597.899 274.477 597.456 275.304 596.834 277.38L596.414 277.357C595.905 275.823 595.374 273.253 595.997 271.721Z" fill="#1F1511"/>
<path d="M623.034 270.501L623.492 271.085C623.564 272.655 623.805 275.246 623.432 276.669C622.421 274.508 621.741 272.555 623.034 270.501Z" fill="#1F1511"/>
<path d="M611.839 741C615.024 735.765 617.16 729.099 620.073 723.801C636.658 693.631 647.202 660.261 655.641 627.014C656.194 624.837 656.33 622.439 656.741 620.218C657.793 614.513 658.744 608.801 659.448 603.035C659.903 599.21 661.019 595.374 661.48 591.568C663.654 573.737 666.008 556.039 672.659 539.207C674.065 535.628 675.711 530.845 677.758 527.585C678.308 538.857 674.652 555.423 672.842 566.942C672.406 569.637 672.463 572.448 672.033 575.134C668.175 599.251 665.426 623.823 659.145 647.463C658.491 649.921 655.783 656.726 657.019 658.571C656.643 659.724 656.083 661.272 655.802 662.412C648.772 677.652 644.428 697.732 638.099 713.749C635.521 720.269 627.438 735.481 626.854 741H611.839Z" fill="#D3C4B6"/>
<path d="M367.714 583.461C367.506 590.674 366.188 596.42 365.17 603.427C363.056 617.969 358.871 632.485 358.455 647.169C358.223 655.336 365.843 659.496 369.887 665.9C369.773 671.65 368.666 680.306 366.569 685.841C362.751 695.922 365.149 706.18 362.075 715.96C360.741 720.2 356.727 725.956 354.859 730.155C352.966 733.519 349.503 736.975 348.001 741H332.397C332.911 736.35 332.866 731.213 333.547 726.654C336.395 707.601 335.174 688.924 335.442 669.691C336.037 670.61 335.81 699.125 335.811 702.613C340.294 706.265 343.015 718.981 349.18 711.825C351.407 709.238 352.545 698.222 353.342 694.44C354.635 688.308 355.727 681.879 356.775 675.684C357.185 672.762 357.527 665.461 357.193 662.627C356.708 658.517 351.836 653.017 351.47 648.117C350.384 633.556 360.798 594.872 367.714 583.461Z" fill="#D3C4B6"/>
<path d="M240.641 682.201C241.978 681.996 249.54 683.361 251.418 683.658C257.068 685.294 266.569 685.79 272.467 686.605C275.828 687.07 279.155 687.749 282.484 688.216L309.995 691.827C313.588 692.33 317.421 693.435 320.955 694.326C323.981 695.088 327.765 696.809 330.784 696.86C330.541 700.828 330.428 704.802 330.446 708.776C330.467 711.421 330.701 715.531 330.39 718.036C330.184 718.197 329.917 718.431 329.698 718.545C320.277 715.066 309.915 712.536 300.214 709.816C281.747 704.635 262.088 701.883 243.071 699.561C241.827 698.386 241.534 698.089 240.589 696.674C240.308 691.275 240.146 687.613 240.641 682.201Z" fill="#EBDDC9"/>
<path d="M654.447 711.692C661.164 710.754 666.358 710.631 673.148 710.135C684.229 709.323 695.421 707.62 706.571 707.219C712.037 707.023 720.012 704.572 725.478 703.719C726.887 703.497 732.335 701.447 733.342 701.965C733.832 704.515 733.595 706.761 733.813 709.418C733.832 714.188 732.777 718.725 731.88 723.403C728.113 723.918 723.958 725.7 720.448 726.007C713.386 726.616 706.356 727.125 699.294 727.883C685.183 729.396 670.848 728.935 656.684 729.836C655.42 729.911 653.859 730.003 652.614 729.978C651.714 729.905 650.857 729.804 649.96 729.7C648.658 726.389 652.993 715.044 654.447 711.692Z" fill="#EBDDC9"/>
<path d="M657.018 658.571C658.39 656.113 658.946 653.099 660.118 650.439C661.534 647.229 663.53 644.083 664.936 640.936C666.608 637.196 667.995 633.184 669.61 629.361L696.846 564.32C700.865 554.785 706.925 539.116 712.874 530.728C710.792 539.789 705.462 551.689 701.632 560.361L690.716 585.177C683.275 601.886 676.918 619.52 669.505 636.292C668.75 637.995 667.821 639.812 667.145 641.489C679.19 633.095 687.825 621.356 697.626 610.583C698.956 609.12 711.964 593.106 712.388 592.869L712.565 593.296C711.405 595.296 709.354 597.564 708.432 599.365C701.136 613.619 689.721 625.241 679.085 637.041C674.529 642.099 667.546 646.367 663.379 651.933C661.688 654.23 659.376 664.238 658.987 667.334L658.936 667.72C658.927 667.799 658.917 667.875 658.908 667.954C668.624 662.337 677 655.01 685.806 648.556C689.247 646.035 714.543 622.645 714.091 622.708C713.456 624.028 712.565 625.065 711.81 626.297C710.119 629.067 708.64 631.636 706.561 634.188C699.054 643.419 683.572 655.93 674.166 663.366C668.564 667.796 661.916 672.288 657.603 678.066C653.676 683.329 651.363 689.281 649.682 695.577C648.854 698.664 647.615 703.185 648.683 706.303C648.961 707.115 649.432 707.838 650.238 708.183C654.077 709.832 701.702 705.44 708.704 704.543C717.137 703.466 725.636 702.022 733.971 700.345C733.968 703.014 734.158 706.903 733.813 709.418C733.595 706.761 733.832 704.515 733.342 701.965C732.334 701.447 726.887 703.497 725.478 703.719C720.012 704.572 712.037 707.023 706.571 707.219C695.421 707.62 684.229 709.323 673.148 710.135C666.358 710.631 661.164 710.754 654.446 711.692C652.993 715.044 648.658 726.389 649.96 729.7C650.857 729.804 651.713 729.905 652.614 729.978C650.677 730.351 640.067 730.837 637.397 731.064C637.448 729.118 637.075 721.713 637.527 720.551C643.132 706.082 647.596 691.196 652.209 676.37C653.23 673.09 656.241 665.537 656.548 662.694L655.802 662.412C656.083 661.272 656.642 659.724 657.018 658.571Z" fill="#D3C4B6"/>
<path d="M657.018 658.571L657.442 659.057C657.123 660.264 656.823 661.477 656.548 662.694L655.802 662.412C656.083 661.272 656.642 659.724 657.018 658.571Z" fill="#6F6F6F"/>
<path d="M436.709 741C439.266 738.021 441.132 735.19 443.495 732.167C480.604 684.71 497.742 627.159 519.992 571.693C522.839 564.525 525.976 557.477 529.395 550.562C530.75 547.87 535.626 539.176 536.261 537.015L536.732 536.617C537.348 541.463 515.369 603.446 511.897 612.974C504.586 632.65 496.639 652.085 488.073 671.245C484.972 678.167 481.933 685.32 478.643 692.14C470.649 708.723 460.192 724.001 448.618 738.274C447.86 739.209 446.943 740.15 446.094 741H436.709Z" fill="#D3C4B6"/>
<path d="M426.123 433.669C415.943 443.51 427.054 460.55 433.022 469.592C429.872 469.45 428.009 469.412 424.824 469.614C415.684 464.303 411.659 456.045 405.897 447.31C409.345 485.691 456.134 513.248 490.727 518.922C497.884 520.098 502.671 521.127 510.08 520.293C512.554 520.012 516.286 520.802 518.82 520.53C545.218 517.69 572.059 502.836 584.117 478.564C585.914 474.928 587.463 471.171 588.752 467.323C589.115 466.23 589.987 462.591 590.319 461.994C590.562 462.42 590.546 462.651 590.499 463.229C589.393 476.997 581.936 490.174 572.056 499.345C558.214 512.105 540.735 520.233 522.055 522.6C516.561 523.269 507.619 523.184 501.988 522.972C497.483 522.802 485.544 520.868 481.125 519.605C447.539 509.994 403.843 484.819 405.056 444.805C405.078 444.053 405.16 444.441 404.655 443.848C410.899 441.232 412.179 438.161 417.892 435.545C420.048 434.56 423.71 434.048 426.123 433.669Z" fill="#C7B8AB"/>
<path d="M315.713 488.082C315.803 488.082 315.893 488.082 315.983 488.082C319.036 487.801 321.673 489.513 323.625 491.551C333.524 501.869 336.02 514.812 335.75 528.58C335.965 533.439 336.271 538.288 336.249 543.156C336.215 551.108 335.456 559.022 335.433 566.973C335.426 569.112 335.503 571.646 335.321 573.75C334.385 584.598 333.901 595.286 333.684 606.169C333.743 608.798 333.989 614.055 333.784 616.459C332.854 616.904 333.247 616.566 332.749 617.697C332.357 632.808 333.587 647.817 333.077 662.933C332.768 672.086 333.97 681.247 333.856 690.412C333.844 698.544 333.163 706.562 332.998 714.684C332.967 716.21 332.808 717.717 332.615 719.23L329.698 718.545C329.917 718.431 330.184 718.197 330.39 718.036C330.701 715.531 330.467 711.421 330.446 708.776C330.428 704.802 330.541 700.828 330.784 696.86C327.765 696.809 323.981 695.088 320.955 694.326C317.421 693.435 313.588 692.33 309.995 691.827L282.484 688.216C279.155 687.749 275.828 687.07 272.467 686.605C266.569 685.79 257.068 685.294 251.418 683.658C249.54 683.361 241.978 681.996 240.641 682.201L240.815 681.206L241.076 678.037C243.225 678.233 246.563 679.21 248.707 679.797C272.192 686.217 296.728 686.624 320.474 691.834C323.881 692.582 327.361 693.723 330.786 694.579C330.585 687.335 330.344 680.827 330.605 673.596C331.156 672.139 330.829 652.341 330.599 649.482C330.21 637.309 330.586 622.96 330.66 610.674C329.839 600.843 331.09 589.236 330.304 578.814C330.563 578.558 330.906 578.255 331.077 577.933C331.825 576.52 331.567 572.066 331.663 570.316C332.547 554.289 333.018 524.53 327.905 509.754C325.052 501.509 319.236 496.122 315.917 488.553L315.713 488.082Z" fill="#D3C4B6"/>
<path d="M333.684 606.169C333.743 608.798 333.989 614.055 333.784 616.459C332.854 616.904 333.247 616.566 332.75 617.697L332.876 613.571C333.538 612.014 332.651 607.853 333.684 606.169Z" fill="#404347"/>
<path d="M240.815 681.206C242.374 681.528 251.182 682.903 251.866 683.468L251.418 683.658C249.54 683.361 241.978 681.996 240.641 682.201L240.815 681.206Z" fill="#9E9895"/>
<path d="M363.108 741C365.83 737.784 368.1 733.51 370.462 729.987C373.178 725.934 377.112 721.846 379.663 717.875C386.538 707.175 393.9 698.231 403.421 689.793C405.92 687.578 408.537 684.963 411.048 682.622C409.376 689.6 405.144 693.783 402.028 699.7C397.02 709.209 391.888 718.715 387.115 728.341C385.192 732.218 381.625 737.304 380.012 741H363.108Z" fill="#D3C4B6"/>
<path d="M597.339 460.515C599.134 461.646 600.196 462.275 601.779 463.693C601.182 463.747 601.4 463.709 600.84 464C600.695 464.606 600.812 465.358 601.055 465.93C606.995 479.985 611.302 494.448 613.131 509.637C613.602 513.545 613.504 518.303 613.624 522.262L614.341 541.792C604.474 526.334 603.687 491.219 600.221 472.511C599.513 468.685 597.128 463.949 597.339 460.515Z" fill="#D3C4B6"/>
<path d="M255.806 586.554C263.545 594.405 270.415 602.388 278.803 609.717C295.053 623.914 313.827 634.738 329.76 649.273C329.954 649.45 330.351 649.456 330.599 649.482C330.829 652.341 331.156 672.139 330.605 673.596C330.044 666.93 330.264 658.245 330.264 651.453C307.648 635.72 276.99 620.341 261.136 597.412C259.099 594.468 257.29 589.944 255.806 586.554Z" fill="#D3C4B6"/>
<path d="M395.167 453.398C395.925 455.192 397.266 463.112 398.303 466.079C402.029 476.75 408.367 485.397 415.714 493.842C416.325 494.543 418.931 496.296 419.754 496.852C424.032 499.74 428.174 502.912 432.32 505.979C434.149 507.331 438.567 510.285 439.878 511.7C439.156 511.925 438.686 511.615 437.802 511.365C430.45 508.63 424.281 507.862 416.734 504.055C399.819 495.525 385.891 472.015 395.167 453.398Z" fill="#D3C4B6"/>
<path d="M640.254 504.984C651.461 522.258 647.998 558.178 648.485 578.233C648.693 586.886 649.938 594.55 650.892 603.08L650.396 602.925C649.129 599.251 647.666 595.295 646.614 591.602C639.694 567.302 641.954 542.041 640.611 517.166C640.396 513.135 640.601 509.119 640.254 504.984Z" fill="#D3C4B6"/>
<path d="M625.943 584L626.269 584.057C627.245 584.834 639.002 610.404 640.591 614.17C638.215 614.019 634.986 613.497 632.563 613.181L627.166 612.316C626.364 609.008 617.978 592.075 616 588.903C619.33 587.301 622.645 585.668 625.943 584Z" fill="#0E0B0A"/>
<path d="M611.874 591L612.099 591.041C612.774 591.608 620.901 610.254 622 613C620.357 612.889 618.125 612.509 616.45 612.279L612.719 611.648C612.164 609.236 606.367 596.888 605 594.575C607.302 593.407 609.593 592.216 611.874 591Z" fill="#0E0B0A"/>
<path d="M273.384 558.58C277.456 559.654 284.014 571.927 286.645 575.889C298.333 593.492 317.73 609.209 327.448 627.699C326.692 627.387 319.761 620.07 318.883 619.11C306.89 605.996 275.87 575.541 273.384 558.58Z" fill="#D3C4B6"/>
<path d="M291.723 530.128C291.796 530.169 291.87 530.207 291.943 530.245C301.61 543.779 322.795 578.606 325.699 592.661C322.95 589.539 319.475 583.243 316.958 579.522C308.484 566.992 299.343 553.49 293.941 539.296C292.863 536.465 292.502 533.154 291.723 530.128Z" fill="#D3C4B6"/>
<path d="M666.677 682.874C674.627 678.142 683.051 673.978 690.842 669.255C701.004 663.098 711.054 655.863 720.764 649.03C724.236 646.585 726.891 644.358 729.715 641.198C730.069 640.803 730.233 640.848 730.65 640.943C728.499 648.78 704.561 666.573 696.741 670.497C690.277 673.738 673.654 682.767 666.81 683.595L666.677 682.874Z" fill="#D3C4B6"/>
<path d="M350.289 472.625L350.939 473.237C351.661 475.461 351.179 476.659 351.663 478.678C357.236 501.894 350.932 523.393 346.293 546.142C346.129 547.162 346.162 547.27 345.691 548.221C345.627 548.138 347.358 519.981 347.583 516.853C348.017 510.835 348.737 503.193 348.852 497.162C348.987 490.054 351.154 479.278 350.289 472.625Z" fill="#D3C4B6"/>
<path d="M250.347 618.91C252.161 619.76 262.28 626.622 264.942 628.236L284.254 639.894C295.916 646.866 311.904 655.813 319.504 667.429C314.669 665.101 307.905 659.278 303.35 656.126C297.542 651.782 290.903 648.013 285.06 643.783C275.065 636.545 256.28 629.863 250.347 618.91Z" fill="#D3C4B6"/>
<path d="M616.49 619.438C616.427 618.282 616.259 618.478 616.749 617.64C619.868 618.092 622.999 618.455 626.139 618.737L626.361 618.879C626.244 620.06 626.272 621.615 625.549 622.455C624.885 622.667 621.852 621.905 619.555 622.019C618.161 623.58 617.255 624.404 616.411 626.338L615.555 625.472C615.681 624.29 615.975 622.73 616.161 621.523C616.427 621.068 616.433 620.041 616.49 619.438Z" fill="#EBDDC9"/>
<path d="M620.411 624.644C621.391 624.025 622.629 623.987 623.647 624.54C624.661 625.093 625.299 626.154 625.315 627.311C625.328 628.47 624.711 629.544 623.71 630.119C622.2 630.988 620.272 630.489 619.375 628.997C618.478 627.506 618.939 625.57 620.411 624.644Z" fill="#EBDDC9"/>
<path d="M602.924 626.199C601.563 623.459 606.829 620.594 608.506 623.152C608.811 623.616 609.001 624.253 609.021 625.121C609.039 625.864 608.602 626.714 608.015 627.348C607.601 627.795 606.985 627.964 606.376 627.958C604.588 627.943 603.425 627.209 602.924 626.199Z" fill="#EBDDC9"/>
<path d="M632.373 626.864C633.059 625.945 634.328 625.417 635.398 625.831C637.613 626.686 638.381 629.171 636.852 631.089C635.953 632.217 634.206 632.607 633.046 631.75C632.734 631.52 632.503 631.236 632.292 630.886C631.544 629.643 631.505 628.026 632.373 626.864Z" fill="#EBDDC9"/>
<path d="M590.787 624.474C589.822 621.413 595.349 618.905 596.491 621.903C596.607 622.209 596.682 622.554 596.707 622.941C596.889 625.659 592.444 627.427 591.058 625.082C590.946 624.893 590.855 624.689 590.787 624.474Z" fill="#EBDDC9"/>
<path d="M603.668 602C605.033 602.888 607.7 609.541 608.404 611.351L607.905 611.357C605.143 611.405 603.226 611 600.515 610.555C598.388 610.242 596.887 610.002 595.159 608.584C593.813 605.516 601.39 603.118 603.668 602Z" fill="#0E0B0A"/>
<path d="M666.81 683.595C665.657 684.072 665.234 684.328 664.017 684.429C664.64 683.629 665.666 683.339 666.678 682.874L666.81 683.595Z" fill="#D3C4B6"/>
<path d="M445.455 187.467C446.839 187.431 449.743 184.685 451.099 183.753C455.6 180.66 459.453 179.553 464.9 179.264C459.722 180.915 455.253 182.318 450.621 185.329C449.002 186.382 447.562 188.389 446.12 189.088C445.576 188.323 445.568 188.388 445.455 187.467Z" fill="#CCCED4" fill-opacity="0.0196078"/>
<path d="M238.375 733.437L239.315 732.527L239.917 732.616C240.449 734.713 239.264 736.176 240.914 737.253C241.497 739.234 241.621 739.196 240.481 741H240.338C238.655 738.514 238.599 736.388 238.375 733.437Z" fill="#0E0B0A" fill-opacity="0.988235"/>
</g>
</g>
<defs>
<clipPath id="clip0_595_5659">
<rect width="972" height="741" fill="white"/>
</clipPath>
<clipPath id="clip1_595_5659">
<rect width="524" height="593" fill="white" transform="translate(224 148)"/>
</clipPath>
</defs>
</svg>
