<svg width="621" height="694" viewBox="0 0 621 694" fill="none" xmlns="http://www.w3.org/2000/svg">
<g clip-path="url(#clip0_579_5211)">
<path fill-rule="evenodd" clip-rule="evenodd" d="M513.451 0.776959C630.078 6.32104 752.759 49.6839 823.969 139.965C889.811 223.439 845.571 341.968 864.378 445.686C879.498 529.071 935.93 603.036 923.125 686.79C908.939 779.577 863.713 868.124 790.496 928.941C713.813 992.638 612.248 1046.16 513.451 1027.09C417.693 1008.6 387.864 887.369 306.051 835.422C216.536 778.584 60.4734 809.734 19.5565 713.486C-20.5267 619.199 110.652 536.375 136.916 437.569C166.008 328.119 105.542 195.894 180.14 109.359C257.424 19.7073 393.52 -4.92411 513.451 0.776959Z" fill="#EBC926"/>
<g clip-path="url(#clip1_579_5211)">
<path d="M352.038 126.317C362.041 120.606 373.102 118.63 383.146 125.333C387.585 128.295 389.118 129.103 394.249 130.151C405.57 121.784 410.572 120.601 423.093 127.893C432.291 127.065 442.345 128.347 451.615 128.622C454.228 128.7 457.322 129.648 459.988 129.761C467.89 130.105 475.161 129.346 481.749 134.76C487.771 139.707 487.287 146.921 489.54 153.476C489.926 151.461 490.22 149.988 490.371 147.93C490.504 146.126 489.505 140.735 490.046 139.652C491.338 140.56 492.453 143.504 493.095 145.01C495.389 146.137 498.314 147.205 500.248 148.661C502.51 150.366 503.446 153.805 505.06 155.714C506.839 157.816 509.689 159.377 511.525 161.728C514.982 166.149 517.073 171.015 519.778 175.811C523.437 182.291 527.266 186.728 529.696 193.978C531.807 200.278 532.856 205.31 532.65 212.093C532.521 216.291 530.9 219.626 529.825 223.548C529.292 225.496 529.475 229.63 528.982 231.659C527.737 236.783 525.908 241.844 524.552 246.944C523.614 250.47 524.078 254.461 523.528 257.968C521.993 267.753 518.748 277.065 514.356 285.926C513.414 287.822 509.215 295.718 508.011 297.204C497.755 313.659 488.554 326.878 474.687 340.507C471.631 343.509 467.05 352.209 464.965 356.18C461.508 365.758 459.129 383.595 459.002 394.042C461.492 395.078 464.604 396.178 466.851 397.606C471.546 400.591 475.467 404.856 480.087 407.987C482.674 409.743 485.502 410.761 488.141 412.403C494.507 417.073 500.83 421.755 507.601 425.868C515.13 430.439 523.313 434.309 531.026 438.568C545.049 446.292 558.948 454.237 572.721 462.401C584.452 469.237 597.239 476.829 606.987 486.3C610.405 489.617 612.396 498.273 614.658 502.614C625.224 522.886 622.232 545.86 624.513 567.797C625.082 576.605 624.197 585.056 623.335 593.766C622.662 600.545 623.297 607.761 622.949 614.566C622.488 623.604 623.985 632.564 624.826 641.545C625.433 648.214 625.597 654.918 625.319 661.609C625.035 669.415 620.235 686.901 622.57 694H620.327H536.751H527.813H525.756H517.819H515.854H500.839H335.094H325.709H269.012H252.108H237.001H221.397H219.541H129.481C130.621 692.196 130.497 692.234 129.914 690.253C128.264 689.176 129.449 687.713 128.917 685.616L128.315 685.527L127.375 686.437C126.108 677.667 128.945 665.801 128.546 656.734C128.537 652.609 126.925 648.252 127.03 644.145C127.268 634.781 128.504 626.052 128.534 616.603C128.594 597.497 127.208 578.143 128.893 559.09C130.05 546.008 133.36 532.389 136.057 519.534C137.193 514.262 138 506.92 139.62 501.991C142.652 492.893 147.021 484.196 150.352 475.221C152.992 468.109 155.699 465.073 160.746 459.788C165.893 454.402 170.727 448.168 177.347 444.343C182.309 441.477 188.007 439.882 192.679 436.328C198.56 431.993 200.018 428.619 206.929 425.179C214.891 421.218 218.779 423.89 226.304 421.315C231.087 419.679 235.355 416.254 240.15 414.539C246.931 412.324 253.906 411.178 260.768 409.052C270.137 406.151 277.585 401.64 286.075 397.04C288.004 395.995 291.949 396.089 294.172 394.958C297.148 393.445 299.193 391.19 301.816 389.18C303.387 387.98 306.199 387.042 307.14 386.448C310.21 384.511 317.719 385.313 319.089 384.742C318.142 382.84 316.12 381.652 314.975 379.823C309.58 371.217 301.596 333.297 299.985 322.14C298.867 314.391 296.908 294.244 298.578 287.241C298.605 287.129 298.634 287.018 298.662 286.907C297.71 286.016 296.735 284.985 295.813 284.049C294.289 283.426 291.831 280.711 290.832 279.363C285.924 272.733 284.281 262.971 285.556 254.932C283.863 254.484 282.607 254.451 281.8 252.767L282.076 251.989C283.15 250.909 284.387 250.669 285.865 250.177C287.22 248.533 288.342 246.508 289.69 244.793C293.371 240.11 298.078 238.589 303.783 237.88C306.11 233.15 312.048 227.681 312.786 222.977C314.417 212.591 304.76 203.63 302.521 194.358C301.049 188.258 304.984 183.597 305.732 178.163C306.463 172.852 304.02 166.765 305.751 161.29C307.781 152.808 316.277 147.835 324.028 145.379C328.961 143.816 329.842 145.324 335.12 142.088C336.562 141.389 338.002 139.382 339.621 138.329C344.253 135.318 348.722 133.915 353.9 132.264C348.453 132.553 344.6 133.66 340.099 136.754C338.743 137.686 335.84 140.432 334.455 140.467C335.515 139.386 335.85 138.926 336.753 137.739C340.822 132.386 346.942 128.735 353.578 127.735C358.959 126.924 362.246 128.593 367.423 129.558C368.473 129.754 371.421 129.666 372.576 129.642C365.034 123.785 360.925 124.373 352.038 126.317Z" fill="#EBDDC9"/>
<path d="M352.038 126.317C362.041 120.606 373.102 118.63 383.146 125.333C387.585 128.295 389.118 129.103 394.249 130.151C405.57 121.784 410.572 120.601 423.093 127.893C432.291 127.065 442.345 128.347 451.615 128.622C454.228 128.7 457.322 129.648 459.988 129.761C467.89 130.105 475.161 129.346 481.749 134.76C487.771 139.707 487.287 146.921 489.54 153.476C489.926 151.461 490.22 149.988 490.371 147.93C490.504 146.126 489.505 140.735 490.046 139.652C491.338 140.56 492.453 143.504 493.095 145.01C495.389 146.137 498.314 147.205 500.248 148.661C502.51 150.366 503.446 153.805 505.06 155.714C506.839 157.816 509.689 159.377 511.525 161.728C514.982 166.149 517.073 171.015 519.778 175.811C523.437 182.291 527.266 186.728 529.696 193.978C531.807 200.278 532.856 205.31 532.65 212.093C532.521 216.291 530.9 219.626 529.825 223.548C529.292 225.496 529.475 229.63 528.982 231.659C527.737 236.783 525.908 241.844 524.552 246.944C523.614 250.47 524.078 254.461 523.528 257.968C521.993 267.753 518.748 277.065 514.356 285.926C513.414 287.822 509.215 295.718 508.011 297.204C497.755 313.659 488.554 326.878 474.687 340.507C471.631 343.509 467.05 352.209 464.965 356.18C461.508 365.758 459.129 383.595 459.002 394.042C461.492 395.078 464.604 396.178 466.851 397.606C471.546 400.591 475.467 404.856 480.087 407.987C482.674 409.743 485.502 410.761 488.141 412.403C494.507 417.073 500.83 421.755 507.601 425.868C515.13 430.439 523.313 434.309 531.026 438.568C545.049 446.292 558.948 454.237 572.721 462.401C584.452 469.237 597.239 476.829 606.987 486.3C610.405 489.617 612.396 498.273 614.658 502.614C625.224 522.886 622.232 545.86 624.513 567.797C625.082 576.605 624.197 585.056 623.335 593.766C622.662 600.545 623.297 607.761 622.949 614.566C622.488 623.604 623.985 632.564 624.826 641.545C625.433 648.214 625.597 654.918 625.319 661.609C625.035 669.415 620.235 686.901 622.57 694H620.327H536.751H527.813H525.756H517.819H515.854C516.438 688.481 524.52 673.27 527.099 666.749C533.427 650.732 537.772 630.652 544.802 615.412L545.548 615.693C545.241 618.537 542.23 626.09 541.21 629.37C536.597 644.196 532.132 659.082 526.527 673.551C526.075 674.713 526.448 682.118 526.397 684.064C529.067 683.837 539.677 683.35 541.614 682.978C542.859 683.003 544.42 682.911 545.684 682.836C559.848 681.935 574.183 682.396 588.294 680.883C595.356 680.125 602.386 679.616 609.448 679.007C612.958 678.7 617.113 676.918 620.88 676.403C621.777 671.725 622.832 667.188 622.813 662.418C623.158 659.903 622.968 656.014 622.971 653.345C623.234 644.527 621.938 635.606 621.186 626.845C620.614 621.525 620.908 616.057 620.696 610.749C620.311 601.095 621.126 591.744 622.444 582.19C622.573 581.268 621.774 580.339 621.48 579.347C621.628 579.158 621.774 578.968 621.91 578.769C623.733 576.096 621.524 559.46 621.312 555.489C620.75 544.798 621.129 535.011 619.196 524.314C618.564 520.808 617.859 517.288 616.804 513.883C614.668 507.011 608.064 491.042 603.656 485.889C597.669 478.885 582.97 470.618 574.872 465.771C559.785 456.761 544.54 448.014 529.152 439.531C521.914 435.535 514.283 431.807 507.152 427.618C501.736 424.434 495.98 420.305 490.779 416.694C489.196 415.275 488.134 414.646 486.34 413.515C483.755 412.135 479.126 409.87 477.006 408.293C471.369 404.104 468.709 399.959 461.985 397.243C462.617 398.127 463.95 399.912 464.213 400.907C469.094 419.284 455.897 434.066 442.098 444.131C405.829 470.586 348.908 456.569 322.022 422.592C316.054 413.55 304.943 396.51 315.123 386.669C312.71 387.048 309.047 387.56 306.892 388.545C301.179 391.161 299.899 394.232 293.655 396.848C292.245 397.277 286.833 398.452 285.986 398.917C279.262 402.591 273.578 406.369 266.208 408.947C261.579 410.565 256.871 411.942 252.102 413.079C241.311 415.629 236.813 417.935 227 422.75C223.551 424.443 214.141 423.767 210.175 425.953C201.37 429.321 195.777 439.234 186.857 442.33C174.42 446.431 167.153 456.78 158.365 465.749C154.211 469.992 152.746 477.091 150.166 482.158C143.14 495.651 140.928 507.428 137.855 521.869C133.222 543.645 129.891 561.732 130.2 584.212C130.401 598.83 131.762 616.806 130.076 631.038L129.815 634.206L129.641 635.201C129.147 640.613 129.308 644.275 129.589 649.674C130.534 651.089 130.827 651.386 132.071 652.561C151.088 654.883 170.747 657.635 189.214 662.816C198.915 665.536 209.277 668.066 218.698 671.545L221.616 672.23C221.808 670.717 221.968 669.21 221.998 667.684C222.163 659.562 222.844 651.544 222.856 643.412C222.97 634.247 221.768 625.086 222.077 615.934C222.587 600.817 221.357 585.808 221.75 570.697C222.247 569.566 221.854 569.904 222.784 569.459C223.169 587.207 223.721 604.952 224.442 622.691C224.174 641.924 225.395 660.601 222.547 679.654C221.866 684.213 221.911 689.35 221.397 694H219.541H129.481C130.621 692.196 130.497 692.234 129.914 690.253C128.264 689.176 129.449 687.713 128.917 685.616L128.315 685.527L127.375 686.437C126.108 677.667 128.945 665.801 128.546 656.734C128.537 652.609 126.925 648.252 127.03 644.145C127.268 634.781 128.504 626.052 128.534 616.603C128.594 597.497 127.208 578.143 128.893 559.09C130.05 546.008 133.36 532.389 136.057 519.534C137.193 514.262 138 506.92 139.62 501.991C142.652 492.893 147.021 484.196 150.352 475.221C152.992 468.109 155.699 465.073 160.746 459.788C165.893 454.402 170.727 448.168 177.347 444.343C182.309 441.477 188.007 439.882 192.679 436.328C198.56 431.993 200.018 428.619 206.929 425.179C214.891 421.218 218.779 423.89 226.304 421.315C231.087 419.679 235.355 416.254 240.15 414.539C246.931 412.324 253.906 411.178 260.768 409.052C270.137 406.151 277.585 401.64 286.075 397.04C288.004 395.995 291.949 396.089 294.172 394.958C297.148 393.445 299.193 391.19 301.816 389.18C303.387 387.98 306.199 387.042 307.14 386.448C310.21 384.511 317.719 385.313 319.089 384.742C318.142 382.84 316.12 381.652 314.975 379.823C309.58 371.217 301.596 333.297 299.985 322.14C298.867 314.391 296.908 294.244 298.578 287.241C298.605 287.129 298.634 287.018 298.662 286.907C297.71 286.016 296.735 284.985 295.813 284.049C294.289 283.426 291.831 280.711 290.832 279.363C285.924 272.733 284.281 262.971 285.556 254.932C283.863 254.484 282.607 254.451 281.8 252.767L282.076 251.989C283.15 250.909 284.387 250.669 285.865 250.177C287.22 248.533 288.342 246.508 289.69 244.793C293.371 240.11 298.078 238.589 303.783 237.88C306.11 233.15 312.048 227.681 312.786 222.977C314.417 212.591 304.76 203.63 302.521 194.358C301.049 188.258 304.984 183.597 305.732 178.163C306.463 172.852 304.02 166.765 305.751 161.29C307.781 152.808 316.277 147.835 324.028 145.379C328.961 143.816 329.842 145.324 335.12 142.088C336.562 141.389 338.002 139.382 339.621 138.329C344.253 135.318 348.722 133.915 353.9 132.264C348.453 132.553 344.6 133.66 340.099 136.754C338.743 137.686 335.84 140.432 334.455 140.467C335.515 139.386 335.85 138.926 336.753 137.739C340.822 132.386 346.942 128.735 353.578 127.735C358.959 126.924 362.246 128.593 367.423 129.558C368.473 129.754 371.421 129.666 372.576 129.642C365.034 123.785 360.925 124.373 352.038 126.317Z" fill="#0E0B0A"/>
<path d="M131.089 654.754C158.632 655.701 195.228 664.898 221.248 674.299C220.62 678.504 220.039 683.003 219.67 687.233C219.486 689.337 219.648 691.861 219.541 694H129.481C130.621 692.196 130.497 692.234 129.914 690.253C128.534 675.648 130.964 668.215 131.089 654.754Z" fill="#BD6B3E"/>
<path d="M540.148 684.857C549.264 684.715 558.155 684.292 567.321 684.39C574.85 684.469 583.732 682.52 591.366 682.453C601.856 681.885 610.279 681.009 620.576 678.757C620.178 683.701 619.512 689.122 620.327 694H536.751C538.369 691.542 539.725 687.799 540.148 684.857Z" fill="#BD6B3E"/>
<path d="M527.073 685.729C531.415 685.217 535.778 684.927 540.148 684.857C539.725 687.799 538.369 691.542 536.751 694H527.813C527.547 691.245 527.301 688.487 527.073 685.729Z" fill="#96512C"/>
<path d="M517.819 694C518.953 688.952 521.604 682.933 523.993 678.327C524.543 682.478 525.636 689.982 525.756 694H517.819Z" fill="#D3C4B6"/>
<path d="M404.521 261.441C406.445 259.7 407.219 259.782 410.003 259.975C414.657 260.3 419.532 260.93 424.168 261.49C433.981 261.837 442.086 263.602 451.031 264.144C451.1 266.709 451.284 270.151 450.933 272.616C450.759 279.847 450.193 283.431 448.93 290.466C449.344 291.249 449.729 292.077 450.282 292.762C452.377 295.153 453.122 296.307 454.753 299.051C453.827 300.674 454.731 306.559 454.32 309.232C452.784 319.198 451.249 329.002 448.664 338.767C448.092 340.932 445.754 348.636 446.045 350.286C446.424 350.833 446.332 350.852 446.841 351.186C445.28 353.194 443.707 354.813 441.836 356.544C434.695 363.247 424.313 369.821 415.58 374.496C394.101 385.996 366.707 393.057 342.317 389.825C328.13 387.948 314.154 384.479 312.254 367.932C310.837 363.354 309.731 358.373 308.481 353.715C302.725 332.248 298.832 310.642 299.666 288.332C301.228 287.695 309.841 292.143 318.314 287.027C315.019 293.158 312.393 297.598 315.683 304.431C321.164 308.766 321.579 306.806 326.382 309.136C328.605 310.559 329.913 310.532 332.538 310.543C335.116 308.722 334.325 307.928 337.704 306.668C339.412 306.986 342.158 307.482 343.742 308.031C347.569 309.357 349.222 310.405 353.29 311.115C355.272 310.767 355.876 310.634 357.768 309.934C361.041 305.79 362.726 300.097 359.64 295.331C358.853 294.871 358.511 294.15 358.001 293.368L358.329 293.117C358.666 291.28 353.284 287.379 353.788 283.436C358.149 289.495 363.251 294.674 370.961 295.963C376.049 296.814 380.075 295.319 384.849 293.805C394.069 287.258 396.363 283.625 400.173 272.979C401.055 269.365 400.903 265.819 400.897 262.118L404.521 261.441Z" fill="#BD6B3E"/>
<path d="M450.282 292.762C452.377 295.153 453.122 296.307 454.753 299.051C453.827 300.674 454.731 306.559 454.32 309.232C452.784 319.198 451.249 329.002 448.664 338.767C448.092 340.932 445.754 348.636 446.045 350.286C446.424 350.833 446.332 350.852 446.841 351.186C445.28 353.194 443.707 354.813 441.836 356.544C434.695 363.247 424.313 369.821 415.58 374.496C394.1 385.996 366.707 393.057 342.316 389.825C328.129 387.948 314.154 384.479 312.254 367.932L312.848 367.644L313.067 366.797C314.112 367.098 314.394 368.459 315.7 369.514L316.314 370.317L316.666 370.228L316.751 367.881L318.261 366.775C318.806 367.53 318.953 367.913 319.837 368.178C320.36 367.884 320.821 367.635 321.358 367.366C322.017 367.72 321.972 367.739 322.428 368.349L323.094 368.206L323.37 366.971L323.719 367.025L323.816 367.363C324.34 369.135 325.04 370.168 327.05 370.408C327.22 369.511 327.186 367.928 327.589 367.404L328.085 368.646C330.327 369.044 331.918 369.565 334.1 370.247C334.156 369.347 334.099 368.096 334.61 367.445C335.123 368.484 335.048 369.309 335.099 370.491L339.697 371.666C339.369 369.555 339.107 367.436 338.91 365.309C340.204 368.074 340.466 369.369 341.2 372.336C342.372 372.759 343.935 373.267 345.052 373.735L345.381 374.288C345.942 374.114 345.747 374.24 346.026 374.013C347.597 374.029 349.214 374.604 350.39 374.278C350.119 372.689 349.888 371.808 350.022 370.187L350.333 369.979C350.676 371.211 350.836 373.586 351.428 374.193C352.047 373.71 351.916 373.817 352.64 373.482C353.799 374.013 354.174 374.291 355.409 374.323L355.825 373.887C355.935 372.291 355.128 369.754 354.691 368.096C355.54 369.77 357.949 375.552 359.952 375.112C360.542 374.285 360.631 374.089 361.48 373.473L361.942 373.628L362.008 374.847C362.981 375.157 365.389 375.153 366.302 374.68C366.344 373.767 366.29 373.425 366.179 372.547L366.571 372.471C366.912 373.242 367.131 373.681 367.54 374.421C368.801 374.768 370.765 374.386 372.145 374.225C371.789 371.915 371.411 369.612 371.011 367.309C372.381 370.115 373.015 371.634 373.808 374.635L378.435 373.865L379.035 373.359L379.364 373.545C383.279 373.435 381.781 371.587 382.745 369.053C383.345 370.374 383.389 371.827 384.28 372.749C386.726 372.617 387.121 369.818 388.641 369.685L388.783 370.873C389.111 370.923 399.485 367.218 400.755 366.804C401.134 365.982 401.643 364.76 402.496 364.545C402.177 365.471 402.031 365.388 402.246 366.175C402.928 366.121 403.267 366.055 403.943 365.79C419.51 359.688 425.643 352.666 430.24 336.482C431.318 332.676 433.021 324.362 434.556 321.172C435.027 321.563 434.898 322.533 435.296 323.572C435.801 323.107 436.484 320.71 436.752 319.903C437.144 320.036 437.248 320.136 437.561 320.397C439.539 318.936 439.343 315.814 440.598 314.056L441.043 315.232L441.422 315.262C443.978 311.642 444.882 304.978 445.789 300.502C445.956 305.355 445.29 306.606 446.462 311.582C446.604 308.977 449.302 294.782 450.282 292.762Z" fill="#96512C"/>
<path d="M339.405 384.972C346.431 385.083 354.013 385.048 361.035 384.881C364.475 384.798 369.249 383.683 372.708 383.143C375.337 382.732 378.745 382.426 381.216 381.841C392.856 379.096 404.173 374.569 414.891 369.3C417.798 367.872 422.044 366.45 424.724 365.028C429.286 362.604 434.035 358.597 438.714 356.244C440.026 355.584 440.658 356.06 441.836 356.544C434.695 363.247 424.313 369.821 415.58 374.496C394.1 385.996 366.707 393.057 342.316 389.825C328.129 387.948 314.154 384.479 312.254 367.932L312.848 367.644L313.067 366.797C314.112 367.098 314.394 368.459 315.7 369.514L316.314 370.317L316.666 370.228L316.751 367.881C318.05 381.102 327.076 382.432 338.229 384.843L336.987 381.857L337.478 380.565C337.862 382.157 338.653 383.522 339.405 384.972Z" fill="#763E20"/>
<path d="M350.39 374.278C350.119 372.689 349.888 371.808 350.023 370.187L350.333 369.979C350.676 371.211 350.836 373.587 351.429 374.193C351.438 374.25 351.433 374.307 351.458 374.357C351.81 375.062 353.267 382.388 353.546 383.756L353.303 384.097C352.048 383.115 351.137 376.417 350.939 374.626L350.39 374.278Z" fill="#763E20"/>
<path d="M327.05 370.408C327.22 369.511 327.186 367.928 327.589 367.404L328.085 368.646C328.042 370.007 327.978 371.078 327.833 372.433L327.55 372.323C327.374 371.682 327.201 371.056 327.05 370.408Z" fill="#763E20"/>
<path d="M336.987 381.857C336.636 380.132 336.478 379.226 336.33 377.447L336.7 377.396L336.315 376.626L336.389 376.562C337.022 377.681 337.219 379.26 337.478 380.565L336.987 381.857Z" fill="#763E20"/>
<path d="M426.278 358.063C426.294 358.075 426.749 358.369 426.645 358.535C425.874 359.742 424.891 362.58 424.768 363.727C424.335 363.338 424.48 363.477 424.215 362.915C424.543 361.086 425.232 359.595 426.278 358.063Z" fill="#763E20"/>
<path d="M324.306 375.384L324.759 375.349C325.175 376.502 325.585 377.393 325.66 378.616L325.473 378.663L325.059 378.351C324.536 376.992 324.418 376.803 324.306 375.384Z" fill="#763E20"/>
<path d="M299.666 288.332C301.228 287.695 309.841 292.143 318.314 287.027C315.019 293.158 312.393 297.598 315.683 304.43C321.164 308.766 321.579 306.806 326.382 309.136C328.605 310.559 329.913 310.532 332.538 310.543C330.619 312.981 328.887 315.549 327.539 318.352C326.752 318.377 324.727 318.372 324.088 318.572L320.74 319.719C319.405 320.677 318.713 321.121 317.286 321.934C318.386 321.968 319.155 321.189 320.441 321.219C318.442 322.521 315.557 323.724 315.211 326.258C313.605 328.97 315.577 329.717 317.733 331.452C317.076 332.209 316.221 333.136 315.655 333.94L315.632 339.625C317.94 343.136 318.645 344.047 322.606 345.731C322.243 346.186 318.97 348.152 318.215 348.656C318.614 349.397 319.525 351.199 320.126 351.717C313.398 353.237 314.677 361.4 315.652 366.535L316.404 367.357C315.823 368.203 315.849 368.516 315.7 369.514C314.395 368.459 314.112 367.098 313.067 366.797L312.848 367.644L312.254 367.932C310.837 363.354 309.731 358.373 308.481 353.715C302.725 332.248 298.832 310.642 299.666 288.332Z" fill="#96512C"/>
<path d="M326.382 309.136C328.605 310.559 329.913 310.532 332.538 310.543C330.619 312.981 328.887 315.549 327.539 318.352C326.752 318.377 324.727 318.372 324.088 318.572L320.74 319.719C310.729 322.906 313.625 328.534 309.735 330.352L309.258 329.908C307.322 320.656 312.184 313.565 320.821 310.642C322.417 310.102 325.253 310.139 326.382 309.136Z" fill="#763E20"/>
<path d="M307.771 294.418C309.484 294.357 310.79 293.933 311.882 295.354C312.152 297.291 308.957 301.584 307.723 303.365C307.532 304.54 307.614 304.834 306.868 305.465C306.247 305.375 305.9 305.45 305.615 304.791C303.915 300.852 304.463 296.906 307.771 294.418Z" fill="#BD6B3E"/>
<path d="M320.441 321.219C323.849 320.272 325.689 321.531 328.956 322.948C330.686 322.697 336.235 321.517 337.656 321.853C342.021 322.886 346.484 325.816 350.652 327.519C354.834 329.335 359.292 330.946 363.325 332.833C363.848 333.746 363.595 334.898 363.416 335.969C362.454 335.963 361.136 335.997 360.209 335.937C356.906 338.741 345.382 343.156 344.756 344.444C345.489 345.027 345.842 344.86 346.963 344.975L348.106 345.085L348.261 345.425C347.015 346.389 344.565 347.148 343.034 347.476C336.508 348.712 328.84 348.144 322.605 345.731C318.645 344.047 317.94 343.136 315.632 339.625L315.655 333.94C316.22 333.136 317.076 332.209 317.733 331.452C315.577 329.717 313.605 328.97 315.211 326.258C315.557 323.724 318.442 322.521 320.441 321.219Z" fill="#96512C"/>
<path d="M320.441 321.219C323.849 320.272 325.689 321.531 328.956 322.948C330.686 322.697 336.235 321.517 337.656 321.853C342.021 322.886 346.484 325.816 350.653 327.519C354.834 329.335 359.292 330.946 363.325 332.833C363.848 333.746 363.595 334.898 363.416 335.969C363.369 334.717 363.397 334.272 363.07 333.085C362.471 333.315 360.453 334.124 359.917 334.104C355.875 333.956 351.086 332.072 347.179 331.736C336.394 330.809 324.123 334.044 315.211 326.258C315.557 323.724 318.442 322.521 320.441 321.219Z" fill="#763E20"/>
<path d="M315.211 326.258C324.123 334.044 336.394 330.809 347.179 331.736C351.086 332.072 355.875 333.956 359.917 334.104C360.453 334.124 362.471 333.315 363.07 333.085C363.397 334.272 363.369 334.717 363.416 335.97C362.454 335.963 361.136 335.997 360.209 335.937C348.941 333.5 338.649 332.659 327.22 332.823C325.101 332.853 321.725 331.283 319.56 331.487C317.921 332.604 317.507 334.365 316.807 336.237C316.979 336.977 317.499 339.358 317.838 339.871C323.468 348.377 338.835 346.094 346.963 344.975L348.106 345.085L348.261 345.425C347.015 346.389 344.565 347.148 343.034 347.476C336.508 348.712 328.84 348.144 322.605 345.731C318.645 344.047 317.94 343.136 315.632 339.625L315.655 333.94C316.22 333.136 317.076 332.209 317.733 331.452C315.577 329.717 313.605 328.97 315.211 326.258Z" fill="#0E0B0A"/>
<path d="M335.082 310.776C337.278 310.656 340.018 310.497 342.159 310.995C350.095 314.123 351.262 314.451 357.654 319.75L358.337 318.726C359.64 319.511 359.249 322.918 361.022 322.979C361.05 322.34 361.088 321.702 361.134 321.064L361.617 320.921C362.616 321.766 362.703 322.354 363.198 323.627L363.649 323.682L364.32 322.86C366.654 323.763 366.378 325.956 368.464 325.092C370.764 327.005 370.043 335.923 369.658 338.629C368.84 336.907 365.29 331.813 363.34 330.886C355.148 326.993 345.535 321.196 336.691 319.373C334.511 318.924 333.423 320.895 330.034 319.573C330.817 315.381 332.437 313.886 335.082 310.776Z" fill="#763E20"/>
<path d="M404.521 261.441C406.445 259.7 407.219 259.782 410.003 259.975C414.657 260.3 419.532 260.93 424.168 261.49C433.981 261.837 442.086 263.602 451.031 264.144C451.1 266.709 451.283 270.151 450.933 272.616C450.835 270.811 450.791 269.37 450.822 267.564C442.882 267.992 434.427 263.457 425.915 265.042C420.003 266.143 413.498 268.674 407.785 270.641C405.747 271.343 402.196 272.806 400.173 272.979C401.055 269.365 400.903 265.819 400.897 262.118L404.521 261.441Z" fill="#96512C"/>
<path d="M404.521 261.441C406.445 259.7 407.219 259.782 410.003 259.975C414.657 260.3 419.532 260.93 424.168 261.49C420.622 265.672 408.496 263.979 404.521 261.441Z" fill="#BD6B3E"/>
<path d="M322.605 345.731C328.84 348.144 336.508 348.712 343.034 347.476C343.75 350.181 347.759 350.693 350.026 351.049C341.204 354.482 329.006 355.881 320.126 351.717C319.525 351.199 318.614 349.397 318.214 348.656C318.97 348.152 322.243 346.186 322.605 345.731Z" fill="#763E20"/>
<path d="M353.788 283.436C358.149 289.495 363.25 294.674 370.961 295.963C376.049 296.814 380.075 295.319 384.849 293.805C383.43 296.479 381.02 298.256 378.407 299.672C374.82 299.335 371.677 299.8 368.369 299.168C366.329 298.778 361.362 295.211 359.64 295.331C358.853 294.871 358.51 294.15 358.001 293.368L358.329 293.117C358.666 291.28 353.284 287.379 353.788 283.436Z" fill="#96512C"/>
<path d="M332.538 310.543C335.116 308.722 334.325 307.928 337.704 306.667C339.412 306.986 342.158 307.482 343.742 308.031C347.569 309.357 349.222 310.405 353.29 311.115C349.417 312.212 346.519 310.782 342.411 310.53L342.159 310.995C340.018 310.497 337.278 310.656 335.083 310.776C332.437 313.886 330.817 315.381 330.034 319.573C329.007 318.494 325.743 318.844 324.088 318.572C324.727 318.372 326.752 318.377 327.539 318.352C328.887 315.549 330.619 312.981 332.538 310.543Z" fill="#96512C"/>
<path d="M316.404 367.357C317.447 366.421 318.191 364.886 319.126 364.412C318.838 365.379 318.661 365.85 318.261 366.775L316.751 367.881L316.666 370.228L316.314 370.317L315.7 369.514C315.849 368.516 315.823 368.203 316.404 367.357Z" fill="#431F14"/>
<path d="M378.435 373.865C377.901 372.257 376.885 369.372 376.924 367.745C377.772 369.265 378.47 371.647 379.035 373.359L378.435 373.865Z" fill="#763E20"/>
<path d="M345.052 373.735C345.165 371.574 345.326 370.089 345.633 367.944C345.76 369.603 346.057 372.449 346.026 374.013C345.747 374.24 345.942 374.114 345.381 374.288L345.052 373.735Z" fill="#763E20"/>
<path d="M430.575 319.131L431.255 319.549C431.804 321.146 429.488 327.192 428.654 328.913C428.61 328.872 428.55 328.843 428.521 328.791C428.133 328.051 430.569 321.081 430.575 319.131Z" fill="#96512C"/>
<path d="M397.503 338.433L397.781 339.111C397.244 341.054 395.993 344.693 394.852 346.286C394.514 344.943 396.767 339.908 397.503 338.433Z" fill="#96512C"/>
<path d="M415.504 345.367C416.265 347.05 414.73 351.458 414.063 353.231C413.646 352.001 414.913 346.738 415.504 345.367Z" fill="#763E20"/>
<path d="M416.553 327.092C417.235 328.773 415.526 333.266 414.72 334.892C414.417 333.034 415.94 328.923 416.553 327.092Z" fill="#763E20"/>
<path d="M423.251 320.806C423.545 321.809 422.142 327.654 421.611 328.838C420.986 327.014 422.297 322.427 423.251 320.806Z" fill="#763E20"/>
<path d="M398.031 350.232C398.344 350.901 396.458 355.129 396.012 356.384L395.75 356.327L395.551 355.834C395.898 353.604 396.834 352.067 398.031 350.232Z" fill="#763E20"/>
<path d="M408.584 356.149C409.349 357.983 408.467 359.419 407.627 361.038C407.207 359.664 408.113 357.623 408.584 356.149Z" fill="#763E20"/>
<path d="M404.357 352.665C404.505 352.797 404.698 353.106 404.824 353.286C404.739 354.891 404.177 356.044 403.601 357.551L403.418 357.37C403.453 355.971 404.012 354.072 404.357 352.665Z" fill="#763E20"/>
<path d="M424.313 334.976L424.736 335.243C424.844 336.265 424.164 337.492 423.738 338.489L423.258 338.447C423.166 337.443 423.905 335.979 424.313 334.976Z" fill="#96512C"/>
<path d="M458.238 331.909C460.911 336.276 462.69 336.83 467.47 338.202C466.696 340.853 465.363 345.607 464.999 348.325C459.056 367.091 456.743 386.918 456.478 406.524C456.437 409.756 455.978 412.928 455.855 416.147C457.261 411.781 457.83 408.382 458.083 403.776C459.489 403.302 461.208 403.817 462.765 404.088C463.96 413.936 461.622 421.439 455.438 429.093C425.599 466.046 371.719 461.879 336.913 434.685C333.567 432.072 331.896 429.754 329.988 426.067C329.687 425.713 329.803 425.89 329.568 425.422C323.542 413.5 321.918 400.787 326.194 388.002C332.522 391.028 341.613 392.027 348.624 392.674C357.184 393.47 366.79 391.635 375.332 390.46C386.132 388.975 396.976 384.966 407.074 381.001C411.605 379.2 415.791 376.338 420.17 374.234C425.213 372.073 437.217 363.07 441.675 359.473C442.18 358.775 444.43 356.503 445.163 355.797C450.155 350.991 452.541 346.441 455.135 340.111C456.475 337.204 457.22 334.934 458.238 331.909Z" fill="#BD6B3E"/>
<path d="M326.194 388.002C332.522 391.028 341.613 392.027 348.624 392.674C357.184 393.47 366.79 391.635 375.332 390.46C386.132 388.975 396.976 384.966 407.074 381.001C411.605 379.2 415.791 376.338 420.17 374.234C418.663 378.369 404.113 387.847 400.012 390.668C396.739 392.921 386.789 396.68 385.241 399.887C379.85 401.946 373.387 404.426 368.426 407.32C364.21 410.359 359.843 413.184 355.343 415.784C348.672 419.161 337.731 424.696 330.32 425.666L329.988 426.067C329.687 425.713 329.803 425.89 329.568 425.422C323.542 413.5 321.918 400.787 326.194 388.002Z" fill="#763E20"/>
<path d="M355.343 415.784C359.844 413.184 364.21 410.359 368.426 407.32C374.233 413.885 378.726 415.828 387.756 416.583C392.906 417.013 406.97 415.01 412.057 413.364C400.091 421.489 383.743 430.31 369.108 424.253C364.847 422.491 358.644 419.06 355.343 415.784Z" fill="#96512C"/>
<path d="M420.171 374.234C425.213 372.073 437.217 363.07 441.675 359.474C441.195 365.085 430.683 373.425 426.698 377.144C416.253 386.887 399.339 397.451 385.241 399.887C386.789 396.68 396.739 392.921 400.012 390.668C404.113 387.847 418.664 378.37 420.171 374.234Z" fill="#96512C"/>
<path d="M458.238 331.909C460.911 336.276 462.69 336.83 467.47 338.202C466.696 340.853 465.363 345.607 464.999 348.325C464.687 348.248 464.377 348.166 464.07 348.08C459.688 346.87 457.258 343.894 455.135 340.111C456.475 337.204 457.22 334.934 458.238 331.909Z" fill="#96512C"/>
<path d="M311.514 229.827C312.622 227.496 313.678 225.189 314.764 222.819C320.004 211.381 322.016 197.226 331.551 188.328C334.654 185.432 338.49 184.209 342.465 183.127C347.484 181.772 352.652 181.053 357.849 180.985C367.972 180.787 378.015 183.943 388.176 183.261C389.892 183.146 393.269 182.491 394.631 183.266C396.783 184.643 398.95 185.996 401.134 187.324C405.399 188.042 407.365 188.42 411.703 188.621C408.676 189.732 408.237 189.601 405.45 190.354C407.295 191.783 407.412 191.882 409.643 192.613L411.649 193.287C413.371 193.86 415.027 194.403 416.72 195.058C419.69 195.825 422.171 195.336 425.185 194.963C423.362 195.849 421.099 197.023 419.257 197.746C428.604 197.553 433.381 197.342 441.672 192.208C441.384 194.114 441.217 196.125 440.282 197.781C438.038 201.753 435.82 204.826 433.687 208.938L433.574 209.223C432.632 211.633 433.043 213.552 431.239 214.56C429.763 214.529 429.57 214.29 428.417 214.962C427.223 217.031 427.573 221.054 427.858 223.426C433.356 229.758 440.038 235.985 444.838 242.623C449.511 248.183 450.361 253.295 451.255 260.179C447.441 259.862 443.754 259.853 440 259.593C426.585 258.662 412.129 257.459 398.84 255.714C397.544 252.476 395.086 249.117 392.451 246.794C391.5 245.956 389.769 245.175 389.07 244.187C390.912 242.324 402.944 243.208 405.883 244.405C411.409 246.655 414.057 249.213 420.335 248.992C416.755 245.83 400.818 233.734 396.382 233.444C385.907 232.76 362.16 231.12 356.561 241.614C356.735 243.078 356.931 244.538 357.148 245.996C355.724 247.861 353.505 250.597 352.324 252.519C351.996 252.251 350.862 251.374 350.671 251.103C346.828 247.99 341.157 247.798 336.461 248.416L335.774 248.07C335.046 247.141 335.086 247.192 334.942 246.008C334.413 237.506 326.021 233.715 319.142 231.276C316.252 230.492 314.477 230.082 311.514 229.827Z" fill="#BD6B3E"/>
<path d="M311.514 229.827C312.622 227.496 313.678 225.189 314.764 222.819C320.004 211.381 322.016 197.226 331.551 188.328C334.654 185.432 338.49 184.209 342.465 183.127C347.484 181.772 352.652 181.053 357.849 180.985C367.972 180.787 378.015 183.943 388.176 183.261C389.892 183.146 393.269 182.491 394.631 183.266C391.361 186.366 387.111 187.11 382.767 186.888C367.163 186.089 349.663 181.968 336.862 193.828C330.124 200.07 329.726 208.662 326.89 216.732C325.066 221.948 322.453 226.853 319.142 231.276C316.252 230.492 314.477 230.082 311.514 229.827Z" fill="#96512C"/>
<path d="M419.258 197.746C428.604 197.553 433.381 197.342 441.672 192.208C441.384 194.114 441.217 196.125 440.282 197.781C438.038 201.753 435.82 204.826 433.688 208.938C432.44 205.846 434.468 201.453 436.218 198.878L436.5 198.47L436.411 198.12C435.135 198.201 432.307 199.393 430.515 199.875C424.894 201.386 414.891 198.508 410.158 195.323C410.142 194.492 410.016 194.856 410.578 194.208C411.447 194.245 411.952 194.485 412.758 194.775L412.796 194.386L412.651 194.617L412.809 194.678L412.439 193.993C412.104 193.836 411.899 193.556 411.649 193.287C413.371 193.86 415.027 194.403 416.72 195.058C419.69 195.825 422.171 195.335 425.185 194.963C423.362 195.849 421.1 197.022 419.258 197.746Z" fill="#96512C"/>
<path d="M411.649 193.287C413.371 193.86 415.027 194.403 416.72 195.058C413.722 196.802 412.193 193.956 410.158 195.323C410.142 194.492 410.016 194.856 410.578 194.208C411.447 194.245 411.952 194.485 412.758 194.775L412.796 194.386L412.651 194.617L412.809 194.678L412.439 193.993C412.104 193.836 411.899 193.556 411.649 193.287Z" fill="#96512C"/>
<path d="M427.858 223.426C433.356 229.758 440.038 235.985 444.838 242.623C442.193 242.521 438.515 239.599 437.04 237.565C434.604 234.208 427.678 227.506 427.858 223.426Z" fill="#96512C"/>
<path d="M356.561 241.614C356.735 243.078 356.931 244.538 357.148 245.996C355.724 247.861 353.505 250.597 352.325 252.519C351.997 252.251 350.862 251.374 350.671 251.103C352.447 249.476 356.181 244.254 356.561 241.614Z" fill="#96512C"/>
<path d="M401.134 187.324C405.399 188.042 407.365 188.42 411.703 188.621C408.676 189.732 408.237 189.601 405.45 190.354C403.873 190.055 401.908 188.773 401.134 187.324Z" fill="#96512C"/>
<path d="M470.977 280.33L471.859 279.186C483.224 264.285 501.866 265.046 505.37 285.239C505.926 288.431 505.607 291.276 505.354 294.479C501.12 306.739 494.671 316.475 485.951 326.042C483.154 329.109 480.09 332.276 476.339 334.18C470.614 337.009 464.134 336.241 460.092 331.181C460.064 328.998 460.14 324.978 459.72 322.98L459.331 322.848C458.035 323.942 457.34 329.682 456.44 331.907C454.004 337.915 450.996 346.281 446.841 351.186C446.332 350.852 446.424 350.833 446.045 350.286C445.754 348.636 448.092 340.932 448.664 338.767C451.249 329.002 452.784 319.198 454.32 309.232C454.73 306.559 453.827 300.674 454.753 299.051C461.976 294.117 459.925 285.535 464.715 278.752C466.285 276.527 470.769 270.872 473.777 273.053C474.187 274.651 471.89 277.998 470.977 280.33Z" fill="#BD6B3E"/>
<path d="M474.292 294.898C472.958 288.287 482.889 276.435 489.528 275.419C492.267 275.001 494.046 275.271 496.709 275.87C502.867 282.059 501.844 292.088 498.738 299.582C498.248 300.637 497.547 302.035 497.161 303.094C496.653 308.817 490.191 313.45 485.995 316.47C493.098 307.122 495.452 300.991 495.822 289.192C496.333 272.659 479.745 285.581 480.226 289.506C481.9 290.282 484.264 291.476 485.989 291.904C489.774 298.686 490.984 305.107 483.749 310.392C479.233 310.574 476.835 311.104 472.889 313.476C468.886 315.882 467.306 316.147 464.696 312.116C466.532 308.383 468.118 306.595 470.737 303.42C470.308 299.736 470.51 297.31 470.974 293.62C472.33 297.081 473.875 299.952 472.374 303.535C471.417 305.825 467.176 310.567 467.306 312.375C469.464 313.687 473.663 310.679 475.752 309.777C477.151 306.025 486.235 301.351 478.361 297.13C477.009 296.405 475.679 295.602 474.292 294.898Z" fill="#0E0B0A"/>
<path d="M480.226 289.506C479.117 289.169 478.617 289.255 478.099 288.516C478.181 286.01 479.834 283.798 481.597 282.133C486.15 277.838 491.581 274.464 497.433 278.43C500.836 284.742 500.144 288.238 498.444 295.149C498.043 296.781 497.509 298.142 497.578 299.797L498.738 299.582C498.248 300.637 497.547 302.035 497.161 303.094C496.652 308.817 490.191 313.45 485.995 316.47C493.098 307.122 495.452 300.991 495.821 289.192C496.333 272.659 479.745 285.581 480.226 289.506Z" fill="#96512C"/>
<path d="M497.578 299.797L498.738 299.582C498.248 300.637 497.547 302.035 497.161 303.094L496.855 303C496.507 302.058 497.161 300.984 497.578 299.797Z" fill="#431F14"/>
<path d="M474.292 294.898C475.401 293.991 475.164 294.145 475.723 292.888C477.951 287.881 484.735 293.735 486.513 295.51C487.016 306.372 487.322 308.151 475.752 309.777C477.151 306.025 486.235 301.351 478.362 297.13C477.009 296.405 475.679 295.602 474.292 294.898Z" fill="#96512C"/>
<path d="M484.801 316.059L485.196 316.252C484.851 317.126 482.058 319.817 481.136 320.865L480.738 320.822C480.839 319.366 483.689 317.085 484.801 316.059Z" fill="#431F14"/>
<path d="M333.995 253.197C341.497 250.155 344.007 251.027 350.905 254.679C350.53 255.954 349.889 257.931 349.625 259.166C348.459 268.003 349.421 275.623 353.788 283.436C353.284 287.379 358.666 291.28 358.329 293.117L358.001 293.368L357.452 293.405C358.399 294.629 358.592 295.712 358.764 297.18C359.535 303.732 359.118 306.595 352.83 308.826C347.883 307.053 340.747 303.726 335.754 304.202C333.23 306.396 334.305 307.02 330.438 308.998C323.058 306.413 326.192 305.744 321.475 302.257L321.173 302.417C321.289 303.536 321.309 303.908 321.25 305.027L320.807 305.409C318.721 305.152 316.512 302.811 315.944 300.829C314.898 297.173 316.937 293.898 318.644 290.832C323.176 282.244 328.83 274.278 332.898 265.359C334.482 261.887 336.511 258.986 337.937 255.267L337.457 255.181C336.328 256.54 335.211 257.909 334.107 259.288L333.995 253.197Z" fill="#BD6B3E"/>
<path d="M318.644 290.832C319.37 292.175 319.401 293.008 319.893 294.335C322.877 302.393 328.115 303.246 335.754 304.202C333.23 306.396 334.305 307.02 330.438 308.998C323.058 306.413 326.192 305.744 321.475 302.257L321.173 302.417C321.289 303.536 321.309 303.908 321.25 305.027L320.807 305.409C318.721 305.152 316.512 302.811 315.944 300.829C314.898 297.173 316.937 293.898 318.644 290.832Z" fill="#96512C"/>
<path d="M333.995 253.197C341.496 250.155 344.007 251.027 350.905 254.679C350.53 255.954 349.888 257.931 349.625 259.166C349.531 257.386 347.779 255.783 346.294 254.995C344.083 253.821 339.3 252.476 337.937 255.267L337.457 255.181C336.328 256.54 335.211 257.909 334.106 259.288L333.995 253.197Z" fill="#96512C"/>
<path d="M483.945 192.973C484.671 193.713 484.608 194.476 485.174 194.794C485.986 195.251 487.85 195.589 488.81 195.816C492.384 196.66 493.799 197.933 496.634 200.147C484.823 199.985 475.562 200.457 467.407 209.879C468.074 207.49 467.808 205.107 468.908 202.989C469.271 202.286 469.328 202.39 469.455 201.535C468.453 201.923 465.205 204.805 463.906 205.707C454.882 211.966 451.836 215.656 450.133 226.19L449.072 222.256C448.301 220.442 447.043 217.668 446.557 215.809C446.089 214.028 446.885 210.934 445.694 209.22L445.293 209.245C444.244 211.03 444.228 213.769 443.182 216.086L442.708 216.212C441.264 214.872 441.119 212.235 440.885 210.303C440.067 203.557 447.448 199.374 452.054 194.204C451.176 197.31 449.982 199.703 448.629 202.608C451.062 201.077 452.532 201.003 455.192 200.396C462.548 198.716 464.955 197.147 472.45 198.683C475.559 197.744 480.848 194.64 483.945 192.973Z" fill="#1F1511"/>
<path d="M321.194 387.282C321.937 387.18 322.246 387.332 322.977 387.522C324.155 388.937 322.914 391.796 322.633 393.701C322.103 397.495 321.925 401.334 322.1 405.163C322.476 413.152 324.587 419.499 327.652 426.746C326.594 425.245 325.565 423.723 324.564 422.184C319.243 415.294 310.289 401.687 313.627 392.235C314.562 389.591 318.627 388.16 321.194 387.282Z" fill="#763E20"/>
<path d="M413.842 148.633C416.069 149.436 419.589 153.667 422.499 155.086C425.956 156.77 433.318 156.808 436.003 158.842L435.662 159.408C423.106 162.404 419.842 158.475 413.842 148.633Z" fill="#1F1511"/>
<path d="M452.377 162.3C460.661 165.238 460.092 173.639 458.911 180.485L458.661 180.862C457.227 180.57 455.783 166.713 454.301 164.921C453.748 164.251 453.151 163.153 452.377 162.3Z" fill="#1F1511"/>
<path d="M416.543 166.061C422.256 166.291 424.509 171.649 425.896 176.312C424.815 179.598 424.389 181.043 422.395 183.833C421.896 184.401 421.909 184.353 421.204 184.657C421.175 184.283 421.09 184.121 421.258 183.833C422.85 181.069 423.191 177.384 422.758 174.217C422.272 170.646 419.412 168.096 416.543 166.061Z" fill="#1F1511"/>
<path d="M458.083 403.776C458.2 401.665 458.453 398.721 458.396 396.674C461.224 399.331 462.544 400.165 462.766 404.088C461.208 403.817 459.489 403.302 458.083 403.776Z" fill="#96512C"/>
<path d="M430.512 167.929C434.708 172.814 436.326 174.825 433.924 181.126C433.757 181.232 433.589 181.337 433.422 181.443C433.03 180.599 433.602 176.697 433.296 174.776C432.733 171.242 430.749 170.134 430.512 167.929Z" fill="#1F1511"/>
<path d="M334.942 246.007C335.086 247.192 335.046 247.141 335.774 248.07L336.461 248.416C334.799 248.875 333.343 249.866 332.208 249.937C331.194 249.198 330.832 247.685 330.244 246.331C331.953 246.101 333.224 246.064 334.942 246.007Z" fill="#96512C"/>
<path d="M500.823 192.041C505.221 192.725 507.086 196.298 506.722 200.486C505.528 199.024 505.389 197.095 504.498 195.786C503.642 194.524 501.828 193.604 500.823 192.041Z" fill="#1F1511"/>
<path d="M449.312 168.883C452.257 170.937 451.659 176.832 451.372 179.954C450.964 179.474 449.542 170.183 449.312 168.883Z" fill="#1F1511"/>
<path d="M494.302 222.592C495.098 223.518 495.569 231.813 495.698 233.51C494.081 232.357 494.166 224.65 494.302 222.592Z" fill="#1F1511"/>
<path d="M484.997 224.721C485.382 224.934 485.654 225.201 486.001 225.488C486.899 227.477 486.456 228.304 485.834 230.38L485.414 230.357C484.905 228.822 484.374 226.252 484.997 224.721Z" fill="#1F1511"/>
<path d="M512.034 223.501L512.492 224.085C512.564 225.655 512.805 228.246 512.432 229.669C511.421 227.508 510.741 225.555 512.034 223.501Z" fill="#1F1511"/>
<path d="M500.839 694C504.024 688.765 506.16 682.099 509.073 676.801C525.658 646.631 536.202 613.261 544.641 580.014C545.194 577.837 545.33 575.439 545.741 573.218C546.793 567.513 547.744 561.801 548.448 556.035C548.903 552.21 550.019 548.374 550.48 544.568C552.654 526.737 555.008 509.04 561.659 492.207C563.065 488.628 564.711 483.845 566.758 480.585C567.308 491.857 563.652 508.423 561.842 519.942C561.406 522.637 561.463 525.448 561.033 528.134C557.175 552.251 554.426 576.823 548.145 600.463C547.491 602.921 544.783 609.726 546.019 611.571C545.643 612.724 545.083 614.272 544.802 615.412C537.772 630.652 533.428 650.732 527.099 666.749C524.521 673.269 516.438 688.481 515.854 694H500.839Z" fill="#D3C4B6"/>
<path d="M256.714 536.461C256.506 543.674 255.187 549.42 254.169 556.427C252.056 570.969 247.871 585.485 247.455 600.169C247.223 608.336 254.843 612.496 258.887 618.9C258.773 624.65 257.666 633.306 255.569 638.841C251.751 648.922 254.149 659.18 251.075 668.96C249.741 673.2 245.727 678.956 243.859 683.155C241.966 686.519 238.503 689.975 237.001 694H221.396C221.911 689.35 221.866 684.213 222.547 679.654C225.395 660.601 224.173 641.924 224.441 622.691C225.037 623.61 224.81 652.125 224.81 655.613C229.294 659.265 232.015 671.981 238.179 664.825C240.407 662.238 241.545 651.222 242.342 647.44C243.635 641.308 244.727 634.879 245.775 628.684C246.184 625.762 246.527 618.461 246.193 615.627C245.708 611.517 240.835 606.017 240.47 601.117C239.384 586.556 249.798 547.872 256.714 536.461Z" fill="#D3C4B6"/>
<path d="M129.641 635.201C130.978 634.996 138.54 636.361 140.418 636.658C146.068 638.294 155.569 638.79 161.467 639.605C164.828 640.07 168.155 640.749 171.484 641.216L198.995 644.827C202.588 645.33 206.421 646.435 209.955 647.326C212.981 648.088 216.765 649.809 219.784 649.86C219.541 653.828 219.428 657.802 219.446 661.776C219.467 664.421 219.701 668.531 219.39 671.036C219.184 671.197 218.917 671.431 218.698 671.545C209.277 668.066 198.915 665.536 189.214 662.816C170.747 657.635 151.088 654.883 132.071 652.561C130.827 651.386 130.534 651.089 129.589 649.674C129.308 644.275 129.146 640.613 129.641 635.201Z" fill="#EBDDC9"/>
<path d="M543.447 664.692C550.164 663.754 555.358 663.631 562.148 663.135C573.229 662.323 584.421 660.62 595.571 660.219C601.037 660.023 609.012 657.571 614.478 656.718C615.887 656.497 621.335 654.447 622.342 654.965C622.832 657.515 622.595 659.761 622.813 662.418C622.832 667.188 621.777 671.725 620.88 676.403C617.113 676.918 612.958 678.7 609.448 679.007C602.386 679.616 595.356 680.125 588.294 680.883C574.183 682.396 559.848 681.935 545.684 682.835C544.42 682.911 542.859 683.003 541.614 682.978C540.714 682.905 539.857 682.804 538.96 682.7C537.658 679.389 541.993 668.044 543.447 664.692Z" fill="#EBDDC9"/>
<path d="M546.018 611.571C547.39 609.113 547.946 606.099 549.118 603.439C550.534 600.229 552.53 597.083 553.936 593.936C555.608 590.196 556.995 586.184 558.61 582.361L585.846 517.32C589.865 507.785 595.925 492.116 601.874 483.728C599.792 492.789 594.462 504.689 590.632 513.361L579.716 538.177C572.275 554.886 565.918 572.52 558.505 589.292C557.75 590.995 556.821 592.811 556.145 594.489C568.19 586.095 576.825 574.356 586.626 563.583C587.956 562.12 600.964 546.106 601.388 545.869L601.565 546.296C600.405 548.295 598.354 550.564 597.432 552.365C590.136 566.619 578.721 578.241 568.085 590.041C563.529 595.099 556.546 599.367 552.379 604.933C550.688 607.23 548.376 617.238 547.987 620.334L547.936 620.72C547.927 620.799 547.917 620.874 547.908 620.953C557.624 615.336 566 608.01 574.806 601.556C578.247 599.035 603.543 575.645 603.091 575.708C602.456 577.028 601.565 578.064 600.81 579.297C599.119 582.067 597.64 584.636 595.561 587.188C588.054 596.419 572.572 608.93 563.166 616.366C557.564 620.796 550.916 625.288 546.603 631.066C542.676 636.329 540.363 642.281 538.682 648.577C537.854 651.664 536.615 656.185 537.683 659.303C537.961 660.115 538.432 660.838 539.238 661.182C543.077 662.832 590.702 658.44 597.704 657.543C606.137 656.466 614.636 655.022 622.971 653.345C622.968 656.014 623.158 659.903 622.813 662.418C622.595 659.761 622.832 657.515 622.342 654.965C621.334 654.447 615.887 656.497 614.478 656.719C609.012 657.572 601.037 660.023 595.571 660.219C584.421 660.62 573.229 662.323 562.148 663.135C555.358 663.631 550.164 663.754 543.446 664.692C541.993 668.044 537.658 679.389 538.96 682.7C539.857 682.804 540.713 682.905 541.614 682.978C539.677 683.35 529.067 683.837 526.397 684.064C526.448 682.118 526.075 674.713 526.527 673.551C532.132 659.082 536.596 644.196 541.209 629.37C542.23 626.09 545.241 618.537 545.548 615.693L544.802 615.412C545.083 614.272 545.642 612.724 546.018 611.571Z" fill="#D3C4B6"/>
<path d="M546.018 611.571L546.442 612.057C546.123 613.264 545.823 614.477 545.548 615.693L544.802 615.412C545.083 614.272 545.642 612.724 546.018 611.571Z" fill="#6F6F6F"/>
<path d="M325.709 694C328.266 691.021 330.132 688.19 332.495 685.167C369.604 637.71 386.742 580.159 408.992 524.693C411.839 517.525 414.976 510.477 418.395 503.561C419.75 500.87 424.626 492.176 425.261 490.015L425.732 489.617C426.348 494.463 404.369 556.446 400.897 565.974C393.586 585.65 385.639 605.085 377.073 624.245C373.972 631.167 370.933 638.319 367.643 645.14C359.649 661.723 349.192 677 337.618 691.274C336.86 692.209 335.943 693.15 335.094 694H325.709Z" fill="#D3C4B6"/>
<path d="M315.123 386.669C304.942 396.51 316.054 413.55 322.022 422.592C318.872 422.45 317.009 422.412 313.824 422.614C304.684 417.303 300.659 409.045 294.897 400.31C298.345 438.691 345.133 466.248 379.727 471.922C386.884 473.098 391.671 474.127 399.08 473.293C401.554 473.012 405.286 473.802 407.82 473.53C434.218 470.69 461.059 455.836 473.116 431.564C474.914 427.928 476.462 424.171 477.752 420.323C478.115 419.23 478.987 415.591 479.319 414.994C479.562 415.42 479.546 415.651 479.499 416.229C478.393 429.997 470.936 443.174 461.056 452.345C447.214 465.105 429.735 473.233 411.055 475.6C405.56 476.269 396.619 476.184 390.988 475.972C386.483 475.802 374.544 473.868 370.125 472.605C336.539 462.994 292.843 437.819 294.056 397.805C294.078 397.053 294.16 397.441 293.655 396.848C299.899 394.232 301.179 391.161 306.892 388.545C309.047 387.56 312.71 387.048 315.123 386.669Z" fill="#C7B8AB"/>
<path d="M204.713 441.082C204.803 441.082 204.893 441.082 204.983 441.082C208.036 440.801 210.673 442.514 212.625 444.551C222.524 454.869 225.02 467.812 224.75 481.58C224.965 486.439 225.271 491.288 225.249 496.156C225.215 504.108 224.456 512.022 224.433 519.973C224.426 522.112 224.503 524.646 224.321 526.75C223.385 537.598 222.901 548.286 222.684 559.169C222.743 561.798 222.989 567.055 222.784 569.459C221.854 569.904 222.247 569.566 221.749 570.697C221.357 585.808 222.587 600.817 222.077 615.934C221.768 625.086 222.97 634.247 222.856 643.412C222.844 651.544 222.163 659.562 221.998 667.684C221.967 669.21 221.808 670.717 221.615 672.23L218.698 671.545C218.917 671.431 219.184 671.197 219.39 671.036C219.701 668.531 219.467 664.421 219.446 661.776C219.428 657.802 219.541 653.828 219.784 649.86C216.765 649.809 212.981 648.088 209.955 647.326C206.421 646.435 202.588 645.33 198.995 644.827L171.484 641.216C168.155 640.749 164.828 640.07 161.467 639.605C155.569 638.79 146.068 638.294 140.418 636.658C138.54 636.361 130.978 634.996 129.641 635.201L129.815 634.206L130.076 631.038C132.225 631.233 135.563 632.21 137.707 632.797C161.192 639.217 185.728 639.624 209.474 644.834C212.881 645.582 216.361 646.723 219.786 647.579C219.585 640.335 219.344 633.827 219.605 626.596C220.156 625.139 219.829 605.341 219.599 602.482C219.21 590.309 219.586 575.96 219.66 563.674C218.839 553.843 220.09 542.236 219.304 531.814C219.563 531.558 219.906 531.255 220.077 530.933C220.825 529.52 220.567 525.066 220.663 523.316C221.547 507.289 222.018 477.53 216.905 462.754C214.052 454.509 208.236 449.123 204.917 441.553L204.713 441.082Z" fill="#D3C4B6"/>
<path d="M222.684 559.169C222.743 561.798 222.989 567.055 222.784 569.459C221.854 569.904 222.247 569.566 221.75 570.697L221.876 566.571C222.538 565.014 221.651 560.853 222.684 559.169Z" fill="#404347"/>
<path d="M129.815 634.206C131.374 634.528 140.182 635.903 140.866 636.468L140.418 636.658C138.54 636.361 130.978 634.996 129.641 635.201L129.815 634.206Z" fill="#9E9895"/>
<path d="M252.107 694C254.829 690.784 257.1 686.51 259.462 682.987C262.178 678.934 266.112 674.846 268.663 670.875C275.538 660.175 282.9 651.231 292.42 642.793C294.919 640.578 297.537 637.962 300.048 635.622C298.376 642.6 294.144 646.783 291.028 652.7C286.02 662.209 280.888 671.715 276.115 681.341C274.192 685.218 270.625 690.304 269.012 694H252.107Z" fill="#D3C4B6"/>
<path d="M486.339 413.515C488.134 414.646 489.196 415.275 490.779 416.693C490.182 416.747 490.4 416.709 489.84 417C489.695 417.606 489.812 418.358 490.055 418.93C495.995 432.985 500.302 447.448 502.131 462.637C502.602 466.545 502.504 471.303 502.624 475.262L503.341 494.792C493.474 479.334 492.687 444.219 489.221 425.511C488.513 421.685 486.128 416.949 486.339 413.515Z" fill="#D3C4B6"/>
<path d="M144.806 539.554C152.545 547.405 159.415 555.388 167.803 562.717C184.053 576.914 202.827 587.738 218.76 602.273C218.954 602.45 219.351 602.456 219.599 602.482C219.829 605.341 220.156 625.139 219.605 626.596C219.044 619.93 219.264 611.245 219.264 604.453C196.648 588.72 165.99 573.341 150.136 550.412C148.099 547.468 146.29 542.944 144.806 539.554Z" fill="#D3C4B6"/>
<path d="M284.167 406.398C284.925 408.192 286.266 416.112 287.303 419.079C291.029 429.75 297.367 438.397 304.714 446.842C305.325 447.543 307.931 449.296 308.754 449.852C313.032 452.74 317.174 455.912 321.32 458.979C323.149 460.331 327.567 463.285 328.878 464.7C328.156 464.925 327.686 464.615 326.802 464.366C319.45 461.63 313.281 460.862 305.734 457.055C288.819 448.525 274.891 425.015 284.167 406.398Z" fill="#D3C4B6"/>
<path d="M529.254 457.984C540.461 475.258 536.998 511.178 537.485 531.233C537.693 539.886 538.938 547.55 539.892 556.08L539.396 555.925C538.129 552.251 536.666 548.295 535.614 544.602C528.694 520.302 530.954 495.041 529.611 470.166C529.396 466.135 529.601 462.119 529.254 457.984Z" fill="#D3C4B6"/>
<path d="M514.943 537L515.269 537.057C516.245 537.834 528.002 563.404 529.591 567.17C527.215 567.019 523.986 566.497 521.563 566.181L516.166 565.316C515.364 562.008 506.978 545.075 505 541.903C508.33 540.301 511.645 538.668 514.943 537Z" fill="#0E0B0A"/>
<path d="M500.874 544L501.099 544.041C501.774 544.608 509.901 563.254 511 566C509.357 565.889 507.125 565.509 505.45 565.279L501.719 564.648C501.164 562.236 495.367 549.888 494 547.575C496.302 546.407 498.593 545.216 500.874 544Z" fill="#0E0B0A"/>
<path d="M162.384 511.579C166.456 512.654 173.014 524.927 175.645 528.889C187.333 546.492 206.73 562.208 216.448 580.699C215.692 580.386 208.761 573.07 207.883 572.109C195.89 558.996 164.87 528.541 162.384 511.579Z" fill="#D3C4B6"/>
<path d="M180.723 483.128C180.796 483.169 180.87 483.207 180.943 483.245C190.61 496.779 211.795 531.606 214.699 545.661C211.95 542.539 208.475 536.243 205.958 532.522C197.484 519.992 188.343 506.49 182.941 492.296C181.863 489.465 181.502 486.154 180.723 483.128Z" fill="#D3C4B6"/>
<path d="M555.677 635.874C563.627 631.142 572.051 626.978 579.842 622.255C590.004 616.098 600.054 608.863 609.764 602.03C613.236 599.585 615.891 597.358 618.715 594.198C619.069 593.803 619.233 593.848 619.65 593.942C617.499 601.78 593.561 619.573 585.741 623.497C579.277 626.738 562.654 635.767 555.81 636.595L555.677 635.874Z" fill="#D3C4B6"/>
<path d="M239.289 425.625L239.939 426.237C240.661 428.461 240.179 429.659 240.663 431.678C246.236 454.894 239.932 476.393 235.293 499.142C235.129 500.162 235.162 500.27 234.691 501.221C234.627 501.138 236.358 472.981 236.583 469.853C237.017 463.835 237.737 456.193 237.852 450.162C237.987 443.054 240.154 432.278 239.289 425.625Z" fill="#D3C4B6"/>
<path d="M139.347 571.91C141.161 572.76 151.28 579.622 153.942 581.236L173.254 592.894C184.916 599.866 200.904 608.813 208.504 620.429C203.669 618.101 196.905 612.278 192.35 609.125C186.542 604.782 179.903 601.013 174.06 596.783C164.065 589.545 145.28 582.863 139.347 571.91Z" fill="#D3C4B6"/>
<path d="M505.475 572.624C505.484 572.5 505.479 572.255 505.469 572.131C505.383 571.111 506.411 570.738 507.424 570.874C509.943 571.213 512.47 571.496 515.003 571.724C515.093 571.732 515.179 571.762 515.254 571.81C515.324 571.855 515.404 571.884 515.486 571.894C515.767 571.926 515.981 571.939 516.156 571.951C517.084 572.015 517.475 573.043 517.418 573.971C517.311 575.711 516.985 578.261 516.648 580.647C516.234 583.58 513.448 585.488 510.488 585.36C509.158 585.303 507.736 584.763 506.86 583.76C505.878 582.635 505.565 581.916 505.439 579.884C505.418 579.533 505.274 579.199 505.027 578.949C504.728 578.647 504.579 578.227 504.637 577.806C504.731 577.12 504.858 576.365 504.978 575.649C505.102 574.905 505.345 574.169 505.416 573.419C505.442 573.142 505.457 572.863 505.475 572.624Z" fill="#0E0B0A"/>
<path d="M505.49 572.438C505.427 571.282 505.259 571.478 505.749 570.64C508.868 571.092 511.999 571.455 515.139 571.737L515.361 571.879C515.244 573.06 515.272 574.615 514.549 575.455C513.885 575.667 510.852 574.905 508.555 575.019C507.161 576.58 506.255 577.404 505.411 579.338L504.555 578.472C504.681 577.29 504.975 575.73 505.161 574.523C505.427 574.068 505.433 573.041 505.49 572.438Z" fill="#EBDDC9"/>
<path d="M509.411 577.644C510.391 577.025 511.629 576.987 512.647 577.54C513.661 578.093 514.299 579.154 514.315 580.311C514.328 581.47 513.711 582.544 512.71 583.119C511.2 583.988 509.272 583.489 508.375 581.998C507.478 580.506 507.939 578.57 509.411 577.644Z" fill="#EBDDC9"/>
<path d="M498.761 570.584C498.821 569.914 499.343 569.318 499.992 569.491C500.417 569.605 500.758 570.011 500.771 570.451C500.811 571.81 500.647 574.405 500.454 577.023C500.185 580.66 496.505 583.805 492.925 583.11C492.251 582.979 491.588 582.683 491.083 582.218C490.975 582.118 490.875 582.02 490.781 581.921C489.888 580.982 489.537 579.657 489.531 578.361L489.528 577.615C489.522 576.228 490.186 574.944 491.159 573.956C492.034 573.069 493.211 572.542 494.449 572.681C495.475 572.797 496.556 572.943 497.287 572.986C497.819 573.017 498.289 572.729 498.462 572.226C498.634 571.728 498.71 571.153 498.761 570.584Z" fill="#0E0B0A"/>
<path d="M491.924 579.199C490.563 576.459 495.829 573.594 497.506 576.152C497.811 576.616 498.001 577.253 498.021 578.121C498.039 578.864 497.602 579.714 497.015 580.348C496.601 580.795 495.985 580.964 495.376 580.958C493.588 580.943 492.425 580.209 491.924 579.199Z" fill="#EBDDC9"/>
<path d="M521.575 576.716C521.842 576.568 522.137 576.476 522.441 576.447C524.072 576.292 524.542 576.592 526.005 577.275C526.302 577.416 526.643 577.428 526.952 577.315C527.547 577.096 527.832 577.033 528.222 577.21C528.853 577.497 529.27 578.119 529.364 578.805C529.684 581.152 529.119 585.79 528.047 587.569C527.756 588.052 527.096 588.156 526.756 587.706C526.725 587.665 526.689 587.618 526.646 587.565C526.589 587.495 526.541 587.417 526.506 587.334C526.36 586.976 525.991 586.759 525.608 586.811C522.97 587.167 522.228 587.586 520.754 586.684C519.239 585.757 518.352 584.024 518.331 582.248C518.325 581.779 518.347 581.339 518.392 580.869C518.547 579.235 519.583 577.822 521.018 577.025L521.575 576.716Z" fill="#0E0B0A"/>
<path d="M521.373 579.864C522.059 578.945 523.328 578.417 524.398 578.831C526.613 579.686 527.381 582.171 525.852 584.089C524.953 585.217 523.206 585.607 522.046 584.75C521.734 584.52 521.503 584.236 521.292 583.886C520.544 582.643 520.505 581.026 521.373 579.864Z" fill="#EBDDC9"/>
<path d="M479.736 571.471C480.729 570.753 482.003 570.372 483.18 570.713C483.94 570.933 484.319 571.317 485.328 571.804C485.806 572.035 486.365 572.016 486.84 571.779C487.018 571.69 487.195 571.6 487.379 571.504C487.559 571.41 487.772 571.4 487.959 571.48C488.169 571.569 488.321 571.756 488.342 571.983C488.527 573.982 488.126 579.535 487.17 581.463C486.973 581.859 486.513 581.963 486.083 581.865C485.935 581.831 485.795 581.772 485.655 581.712C483.763 580.899 478.726 581.901 477.619 578.892C476.394 575.568 477.325 573.213 479.736 571.471Z" fill="#0E0B0A"/>
<path d="M479.787 577.474C478.822 574.414 484.349 571.905 485.491 574.904C485.607 575.209 485.682 575.554 485.707 575.941C485.889 578.659 481.444 580.427 480.058 578.082C479.946 577.893 479.855 577.689 479.787 577.474Z" fill="#EBDDC9"/>
<path d="M492.668 555C494.033 555.888 496.7 562.541 497.404 564.351L496.905 564.357C494.143 564.405 492.226 564 489.515 563.555C487.388 563.242 485.887 563.002 484.159 561.584C482.813 558.516 490.39 556.118 492.668 555Z" fill="#0E0B0A"/>
<path d="M531.281 579.136C532.208 577.883 533.9 577.274 535.377 577.771C535.738 577.893 536.08 578.051 536.385 578.252C537.673 579.1 536.779 580.712 535.243 580.583C534.568 580.527 533.899 580.426 533.412 580.367C533.331 580.357 533.251 580.383 533.192 580.439C533.086 580.538 533.073 580.702 533.169 580.811C533.821 581.563 534.598 582.096 535.439 582.533C536.649 583.162 537.608 584.333 537.528 585.694C537.502 586.134 537.436 586.558 537.293 586.971C537.082 587.582 536.611 588.092 536.008 588.324C535.517 588.513 535.089 588.484 534.211 588.524C532.266 588.536 531.684 588.573 530.346 587.64C530.054 587.437 529.761 587.03 529.612 586.707C529.302 586.034 530.223 585.53 530.958 585.625C531.318 585.672 531.685 585.763 532.056 585.86C533.702 586.294 534.745 584.884 533.383 583.864C532.696 583.349 531.901 582.863 531.317 582.287C530.637 581.617 530.502 580.554 530.931 579.701C531.031 579.501 531.149 579.315 531.281 579.136Z" fill="#0E0B0A"/>
<path d="M503.793 580.748C503.398 584.899 500.64 584.84 501.156 580.702C501.371 578.978 501.788 577.368 502.283 576.535C502.527 576.126 503.096 576.03 503.546 576.188C504.203 576.418 504.335 577.215 504.221 577.901C504.06 578.865 503.884 579.904 503.793 580.748Z" fill="#0E0B0A"/>
<path d="M555.81 636.595C554.657 637.072 554.234 637.328 553.017 637.429C553.64 636.629 554.666 636.339 555.678 635.874L555.81 636.595Z" fill="#D3C4B6"/>
<path d="M334.455 140.467C335.839 140.431 338.743 137.686 340.099 136.754C344.6 133.66 348.453 132.553 353.9 132.264C348.722 133.915 344.253 135.318 339.621 138.329C338.002 139.382 336.562 141.389 335.12 142.088C334.576 141.323 334.568 141.388 334.455 140.467Z" fill="#CCCED4" fill-opacity="0.0196078"/>
<path d="M127.375 686.437L128.315 685.527L128.917 685.616C129.449 687.713 128.264 689.176 129.914 690.253C130.497 692.234 130.621 692.196 129.481 694H129.338C127.655 691.514 127.599 689.388 127.375 686.437Z" fill="#0E0B0A" fill-opacity="0.988235"/>
<circle cx="503.5" cy="573.5" r="1.5" fill="#0E0B0A"/>
</g>
</g>
<defs>
<clipPath id="clip0_579_5211">
<rect width="621" height="694" fill="white"/>
</clipPath>
<clipPath id="clip1_579_5211">
<rect width="576" height="647" fill="white" transform="translate(61 47)"/>
</clipPath>
</defs>
</svg>
