<svg width="40" height="40" viewBox="0 0 40 40" fill="none" xmlns="http://www.w3.org/2000/svg">
<path d="M23.3333 5C23.7754 5 24.1993 5.17559 24.5118 5.48816C24.8244 5.80072 25 6.22464 25 6.66667V15C25 15.442 24.8244 15.866 24.5118 16.1785C24.1993 16.4911 23.7754 16.6667 23.3333 16.6667M31.6667 5C32.1087 5 32.5326 5.17559 32.8452 5.48816C33.1577 5.80072 33.3333 6.22464 33.3333 6.66667V15C33.3333 15.442 33.1577 15.866 32.8452 16.1785C32.5326 16.4911 32.1087 16.6667 31.6667 16.6667M11.6667 25L16.6667 30M16.6667 30L11.6667 35M16.6667 30H8.33333C7.44928 30 6.60143 29.6488 5.97631 29.0237C5.35119 28.3986 5 27.5507 5 26.6667V23.3333" stroke="#2C072B" stroke-width="2" stroke-linecap="round" stroke-linejoin="round"/>
<path d="M33.3335 23.3335H25.0002C24.0797 23.3335 23.3335 24.0797 23.3335 25.0002V33.3335C23.3335 34.254 24.0797 35.0002 25.0002 35.0002H33.3335C34.254 35.0002 35.0002 34.254 35.0002 33.3335V25.0002C35.0002 24.0797 34.254 23.3335 33.3335 23.3335Z" stroke="#2C072B" stroke-width="2" stroke-linecap="round" stroke-linejoin="round"/>
<path d="M15 5H6.66667C5.74619 5 5 5.74619 5 6.66667V15C5 15.9205 5.74619 16.6667 6.66667 16.6667H15C15.9205 16.6667 16.6667 15.9205 16.6667 15V6.66667C16.6667 5.74619 15.9205 5 15 5Z" stroke="#2C072B" stroke-width="2" stroke-linecap="round" stroke-linejoin="round"/>
</svg>
