<svg width="40" height="40" viewBox="0 0 40 40" fill="none" xmlns="http://www.w3.org/2000/svg">
<path d="M13.3335 15.7968C15.2485 14.2385 17.5335 13.3335 19.9918 13.3335C22.4552 13.3335 24.7485 14.2452 26.6668 15.8118M23.6235 20.0002C22.537 19.3094 21.2776 18.9397 19.9902 18.9335C18.7094 18.9398 17.4562 19.306 16.3735 19.9902" stroke="#2C072B" stroke-width="1.5" stroke-linecap="round"/>
<path d="M20 25H20.01" stroke="#2C072B" stroke-width="2" stroke-linecap="round" stroke-linejoin="round"/>
<path d="M35 18.6385V13.8002C35 11.0668 35 9.70016 34.3267 8.8085C33.6533 7.91683 32.13 7.48516 29.085 6.6185C27.2484 6.091 25.4503 5.43779 23.7033 4.6635C21.705 3.77683 20.7067 3.3335 20 3.3335C19.2933 3.3335 18.295 3.77683 16.2967 4.6635C14.83 5.3135 12.9967 6.02683 10.915 6.6185C7.87 7.48516 6.34833 7.9185 5.67333 8.8085C5 9.70016 5 11.0668 5 13.8002V18.6385C5 28.0135 13.4383 33.6385 17.6567 35.8652C18.6683 36.3985 19.1733 36.6668 20 36.6668C20.8267 36.6668 21.3317 36.4002 22.3433 35.8668C26.5617 33.6368 35 28.0135 35 18.6385Z" stroke="#2C072B" stroke-width="1.5" stroke-linecap="round"/>
</svg>
