<svg width="40" height="40" viewBox="0 0 40 40" fill="none" xmlns="http://www.w3.org/2000/svg">
<path d="M20 37.5C18.5598 37.4979 17.1643 36.9996 16.0487 36.0888C14.933 35.1781 14.1653 33.9106 13.875 32.5H7.5C6.12125 32.5 5 31.3787 5 30V23.75H6.25C8.3175 23.75 10 22.0675 10 20C10 17.9325 8.3175 16.25 6.25 16.25H5V10C5 8.62125 6.12125 7.5 7.5 7.5H13.875C14.4563 4.65 16.9812 2.5 20 2.5C23.0187 2.5 25.5437 4.65 26.125 7.5H32.5C33.8787 7.5 35 8.62125 35 10V16.25H33.75C31.6825 16.25 30 17.9325 30 20C30 22.0675 31.6825 23.75 33.75 23.75H35V30C35 31.3787 33.8787 32.5 32.5 32.5H26.125C25.8347 33.9106 25.067 35.1781 23.9513 36.0888C22.8357 36.9996 21.4402 37.4979 20 37.5ZM7.5 26.125V30H16.25V31.25C16.25 33.3175 17.9325 35 20 35C22.0675 35 23.75 33.3175 23.75 31.25V30H32.5V26.125C29.65 25.5437 27.5 23.0187 27.5 20C27.5 16.9812 29.65 14.4563 32.5 13.875V10H23.75V8.75C23.75 6.6825 22.0675 5 20 5C17.9325 5 16.25 6.6825 16.25 8.75V10H7.5V13.875C10.35 14.4563 12.5 16.9825 12.5 20C12.5 23.0175 10.35 25.5437 7.5 26.125Z" fill="#2C072B"/>
</svg>
