<svg width="40" height="40" viewBox="0 0 40 40" fill="none" xmlns="http://www.w3.org/2000/svg">
<path d="M20.0002 3.3335C29.2052 3.3335 36.6668 10.7952 36.6668 20.0002C36.6668 29.2052 29.2052 36.6668 20.0002 36.6668C10.7952 36.6668 3.3335 29.2052 3.3335 20.0002C3.3335 10.7952 10.7952 3.3335 20.0002 3.3335ZM20.0002 10.0002C19.5581 10.0002 19.1342 10.1758 18.8217 10.4883C18.5091 10.8009 18.3335 11.2248 18.3335 11.6668V20.0002C18.3336 20.4422 18.5092 20.866 18.8218 21.1785L23.8218 26.1785C24.1362 26.4821 24.5572 26.6501 24.9942 26.6463C25.4312 26.6425 25.8492 26.4672 26.1582 26.1582C26.4672 25.8492 26.6425 25.4312 26.6463 24.9942C26.6501 24.5572 26.4821 24.1362 26.1785 23.8218L21.6668 19.3102V11.6668C21.6668 11.2248 21.4912 10.8009 21.1787 10.4883C20.8661 10.1758 20.4422 10.0002 20.0002 10.0002Z" fill="#2C072B"/>
</svg>
