<svg width="40" height="40" viewBox="0 0 40 40" fill="none" xmlns="http://www.w3.org/2000/svg">
<path d="M15 17.5C16.3807 17.5 17.5 16.3807 17.5 15C17.5 13.6193 16.3807 12.5 15 12.5C13.6193 12.5 12.5 13.6193 12.5 15C12.5 16.3807 13.6193 17.5 15 17.5Z" fill="black"/>
<path d="M25 17.5C26.3807 17.5 27.5 16.3807 27.5 15C27.5 13.6193 26.3807 12.5 25 12.5C23.6193 12.5 22.5 13.6193 22.5 15C22.5 16.3807 23.6193 17.5 25 17.5Z" fill="black"/>
<path d="M20 37.5C10.35 37.5 2.5 29.65 2.5 20C2.5 10.35 10.35 2.5 20 2.5C29.65 2.5 37.5 10.35 37.5 20C37.5 29.65 29.65 37.5 20 37.5ZM20 5C11.725 5 5 11.725 5 20C5 28.275 11.725 35 20 35C28.275 35 35 28.275 35 20C35 11.725 28.275 5 20 5Z" fill="black"/>
<path d="M27.0748 28.75C26.5498 28.75 26.0748 28.425 25.8998 27.925C25.4698 26.7036 24.6713 25.6458 23.6145 24.8974C22.5577 24.1491 21.2947 23.7473 19.9998 23.7473C18.7049 23.7473 17.4419 24.1491 16.3852 24.8974C15.3284 25.6458 14.5299 26.7036 14.0998 27.925C13.8748 28.575 13.1498 28.925 12.4998 28.675C12.3442 28.6211 12.2009 28.5366 12.0784 28.4264C11.956 28.3162 11.8569 28.1826 11.7869 28.0334C11.717 27.8842 11.6777 27.7226 11.6713 27.558C11.665 27.3933 11.6917 27.2291 11.7498 27.075C12.9748 23.575 16.2998 21.25 19.9998 21.25C23.6998 21.25 27.0248 23.6 28.2498 27.075C28.3181 27.2637 28.3399 27.4661 28.3134 27.665C28.2869 27.8639 28.2129 28.0536 28.0976 28.2179C27.9824 28.3821 27.8293 28.5163 27.6512 28.6089C27.4732 28.7015 27.2755 28.7499 27.0748 28.75Z" fill="black"/>
</svg>
