<svg width="40" height="40" viewBox="0 0 40 40" fill="none" xmlns="http://www.w3.org/2000/svg">
<g clip-path="url(#clip0_403_22631)">
<path d="M20 5C23.5875 5 26.5 7.9125 26.5 11.5C26.5 15.0875 23.5875 18 20 18C16.4125 18 13.5 15.0875 13.5 11.5C13.5 7.9125 16.4125 5 20 5ZM6 9.5C8.4875 9.5 10.5 11.5125 10.5 14C10.5 16.4875 8.4875 18.5 6 18.5C3.5125 18.5 1.5 16.4875 1.5 14C1.5 11.5125 3.5125 9.5 6 9.5ZM0 30C0 25.5812 3.58125 22 8 22C8.8 22 9.575 22.1187 10.3062 22.3375C8.25 24.6375 7 27.675 7 31V32C7 32.7125 7.15 33.3875 7.41875 34H2C0.89375 34 0 33.1063 0 32V30ZM32.5812 34C32.85 33.3875 33 32.7125 33 32V31C33 27.675 31.75 24.6375 29.6938 22.3375C30.425 22.1187 31.2 22 32 22C36.4188 22 40 25.5812 40 30V32C40 33.1063 39.1063 34 38 34H32.5812ZM29.5 14C29.5 11.5125 31.5125 9.5 34 9.5C36.4875 9.5 38.5 11.5125 38.5 14C38.5 16.4875 36.4875 18.5 34 18.5C31.5125 18.5 29.5 16.4875 29.5 14ZM10 31C10 25.475 14.475 21 20 21C25.525 21 30 25.475 30 31V32C30 33.1063 29.1063 34 28 34H12C10.8938 34 10 33.1063 10 32V31Z" fill="black"/>
</g>
<defs>
<clipPath id="clip0_403_22631">
<rect width="40" height="40" fill="white"/>
</clipPath>
</defs>
</svg>
