<svg width="40" height="40" viewBox="0 0 40 40" fill="none" xmlns="http://www.w3.org/2000/svg">
<path d="M21.3654 1.5323L17.8339 11.6999C17.221 11.4125 16.6027 11.1311 15.9855 10.8483L16.0578 2.27785C15.7158 2.05035 15.1745 1.8677 14.6246 1.85949C14.052 1.8509 13.5451 2.0202 13.233 2.28293L13.2635 10.7769L12.332 13.1394C12.9134 13.9068 13.4013 14.7 13.7859 15.5212L12.4638 16.1406C12.2463 15.6763 11.9883 15.2174 11.6917 14.7636L11.6899 14.7677C10.4743 13.1386 9.18119 11.8279 8.22299 11.4111C7.70893 11.1875 7.37002 11.1834 7.01729 11.3717C6.72275 11.5287 6.37197 11.9082 6.0326 12.5908C8.99354 15.5088 9.96111 18.4693 10.6354 20.3924C10.8515 21.0084 10.9268 21.5971 11.0859 22.0188L11.3334 22.6747L0.912598 27.0943V38.6563H5.14088L17.4776 27.0766V23.2379C16.7299 21.6098 15.7172 21.3719 15.6895 19.4171C15.6728 18.2001 16.8129 17.1951 18.2268 17.1951C19.6407 17.1951 20.8078 18.1998 20.8078 19.417C20.8078 21.3286 19.7541 21.6096 18.9375 23.1182V26.3793C19.8313 25.9398 20.5047 25.3944 21.1801 24.6575C22.0059 23.7262 23.4992 22.2999 24.3346 21.4112C26.9192 18.662 31.35 15.6042 32.0746 15.1101C32.1363 14.2449 31.4917 13.4117 30.7617 13.1318L25.4074 17.1385C25.0346 16.6268 24.6241 16.1564 24.1824 15.7207L30.3517 7.16957C30.2678 6.68973 29.9628 6.15059 29.5274 5.7541C29.1346 5.39652 28.6792 5.20066 28.3437 5.15934L21.9178 13.9078C21.399 13.5646 20.8595 13.2443 20.3056 12.9398L24.261 2.60949C23.847 2.13074 23.4339 1.87746 22.9535 1.72574C22.5082 1.58512 21.9639 1.54652 21.3654 1.53223V1.5323ZM18.1179 28.2271C17.5029 33.3244 15.2335 32.6579 15.1879 35.8693C15.1681 37.3248 16.5317 38.527 18.2226 38.527C19.9135 38.527 21.3096 37.3253 21.3096 35.8693C21.3096 32.6416 18.7966 33.3045 18.118 28.2271H18.1179Z" fill="#0D0D0D"/>
</svg>
