<svg width="40" height="40" viewBox="0 0 40 40" fill="none" xmlns="http://www.w3.org/2000/svg">
<path d="M27.5 33.2375L24.2625 30L22.5 31.7625L27.5 36.7625L37.5 26.7625L35.7375 25L27.5 33.2375Z" fill="black"/>
<path d="M20 22.5C21.3807 22.5 22.5 21.3807 22.5 20C22.5 18.6193 21.3807 17.5 20 17.5C18.6193 17.5 17.5 18.6193 17.5 20C17.5 21.3807 18.6193 22.5 20 22.5Z" fill="black"/>
<path d="M20 27.5C18.5166 27.5 17.0666 27.0601 15.8332 26.236C14.5999 25.4119 13.6386 24.2406 13.0709 22.8701C12.5032 21.4997 12.3547 19.9917 12.6441 18.5368C12.9335 17.082 13.6478 15.7456 14.6967 14.6967C15.7456 13.6478 17.082 12.9335 18.5368 12.6441C19.9917 12.3547 21.4997 12.5032 22.8701 13.0709C24.2406 13.6386 25.4119 14.5999 26.236 15.8332C27.0601 17.0666 27.5 18.5166 27.5 20C27.4977 21.9884 26.7068 23.8947 25.3007 25.3007C23.8947 26.7068 21.9884 27.4977 20 27.5ZM20 15C19.0111 15 18.0444 15.2932 17.2222 15.8427C16.3999 16.3921 15.759 17.173 15.3806 18.0866C15.0022 19.0002 14.9032 20.0055 15.0961 20.9755C15.289 21.9454 15.7652 22.8363 16.4645 23.5355C17.1637 24.2348 18.0546 24.711 19.0246 24.9039C19.9945 25.0969 20.9998 24.9978 21.9134 24.6194C22.8271 24.241 23.6079 23.6001 24.1574 22.7779C24.7068 21.9556 25 20.9889 25 20C24.9983 18.6744 24.471 17.4036 23.5337 16.4663C22.5964 15.529 21.3256 15.0017 20 15Z" fill="black"/>
<path d="M35 20C35 17.0333 34.1203 14.1332 32.472 11.6665C30.8238 9.19972 28.4811 7.27713 25.7403 6.14181C22.9994 5.0065 19.9834 4.70945 17.0737 5.28823C14.1639 5.86701 11.4912 7.29562 9.3934 9.3934C7.29562 11.4912 5.86701 14.1639 5.28823 17.0737C4.70945 19.9834 5.0065 22.9994 6.14181 25.7403C7.27713 28.4811 9.19972 30.8238 11.6665 32.472C14.1332 34.1203 17.0333 35 20 35V32.5C17.5277 32.5 15.111 31.7669 13.0554 30.3934C10.9998 29.0199 9.39761 27.0676 8.45151 24.7836C7.50542 22.4995 7.25788 19.9861 7.74019 17.5614C8.22251 15.1366 9.41302 12.9093 11.1612 11.1612C12.9093 9.41302 15.1366 8.22251 17.5614 7.74019C19.9861 7.25788 22.4995 7.50542 24.7836 8.45151C27.0676 9.39761 29.0199 10.9998 30.3934 13.0554C31.7669 15.111 32.5 17.5277 32.5 20H35Z" fill="black"/>
</svg>
